<svg width="557" height="558" viewBox="0 0 557 558" fill="none" xmlns="http://www.w3.org/2000/svg">
<path d="M555.839 280.599C556.613 279.843 557 279.168 557 278.5C557 277.832 556.613 277.157 555.839 276.401C510.64 232.146 514.709 240.366 518.379 233.799C521.499 228.223 526.031 220.103 529.918 213.841C530.739 212.522 531.19 211.795 531.19 211.126C531.19 211.009 531.179 210.904 531.155 210.798C531.126 210.698 531.079 210.599 531.02 210.499C530.686 209.924 529.936 209.52 528.564 208.787C522.067 205.31 514.082 200.543 508.594 197.272C502.127 193.42 502.719 202.572 519.728 141.648C520.021 140.604 520.021 139.83 519.687 139.25C519.353 138.67 518.678 138.283 517.629 138.013C456.359 122.282 463.993 127.371 463.887 119.843C463.799 113.458 463.664 104.159 463.899 96.789C463.946 95.2353 463.975 94.3792 463.641 93.8047C463.582 93.705 463.518 93.617 463.447 93.5408C463.371 93.4705 463.283 93.406 463.184 93.3473C462.609 93.0131 461.753 93.0424 460.199 93.0894C452.829 93.3239 443.536 93.189 437.145 93.1011C429.617 92.9955 434.706 100.629 418.975 39.3594C418.706 38.3099 418.319 37.6356 417.738 37.3014C417.158 36.9672 416.384 36.9672 415.34 37.2604C354.41 54.2752 363.569 54.8674 359.716 48.3945C356.445 42.9066 351.678 34.921 348.201 28.4246C347.468 27.0526 347.064 26.3021 346.489 25.9679C346.39 25.9093 346.29 25.8683 346.19 25.8331C346.085 25.8096 345.979 25.7979 345.862 25.7979C345.199 25.7979 344.472 26.2494 343.147 27.0702C336.885 30.9575 328.765 35.4897 323.189 38.6089C316.616 42.2851 324.842 46.3483 280.587 1.14918C279.843 0.386968 279.168 0 278.5 0C277.832 0 277.157 0.386968 276.401 1.16091C232.146 46.36 240.366 42.291 233.799 38.6206C228.223 35.5014 220.103 30.9692 213.841 27.0819C212.522 26.2611 211.795 25.8096 211.126 25.8096C211.009 25.8096 210.904 25.8213 210.798 25.8448C210.698 25.8741 210.599 25.921 210.499 25.9797C209.924 26.3139 209.52 27.0643 208.787 28.4363C205.31 34.9327 200.543 42.9183 197.272 48.4062C193.42 54.8733 202.572 54.2811 141.648 37.2721C140.604 36.9789 139.83 36.9789 139.25 37.3131C138.67 37.6473 138.283 38.3216 138.013 39.3711C122.282 100.641 127.371 93.0073 119.843 93.1128C113.458 93.2008 104.159 93.3356 96.789 93.1011C95.2353 93.0542 94.3793 93.0249 93.8047 93.3591C93.705 93.4177 93.617 93.4822 93.5408 93.5525C93.4705 93.6288 93.406 93.7167 93.3473 93.8164C93.0131 94.391 93.0425 95.247 93.0894 96.8007C93.3239 104.171 93.189 113.464 93.1011 119.855C92.9955 127.383 100.629 122.294 39.3594 138.025C38.3099 138.294 37.6356 138.681 37.3014 139.262C36.9672 139.842 36.9672 140.616 37.2604 141.66C54.2753 202.59 54.8674 193.431 48.3945 197.284C42.9066 200.555 34.921 205.322 28.4246 208.799C27.0526 209.532 26.3021 209.936 25.9679 210.511C25.9093 210.61 25.8683 210.71 25.8331 210.81C25.8096 210.91 25.7979 211.021 25.7979 211.138C25.7979 211.801 26.2494 212.528 27.0702 213.853C30.9575 220.115 35.4897 228.235 38.6089 233.811C42.2851 240.384 46.3483 232.158 1.14918 276.413C0.386968 277.157 0 277.832 0 278.5C0 279.168 0.386968 279.843 1.16091 280.599C46.36 324.854 42.291 316.634 38.6206 323.201C35.5014 328.777 30.9692 336.897 27.0819 343.159C26.2611 344.478 25.8096 345.205 25.8096 345.874C25.8096 345.991 25.8214 346.096 25.8448 346.202C25.8741 346.302 25.921 346.401 25.9797 346.501C26.3139 347.075 27.0643 347.48 28.4363 348.213C34.9327 351.69 42.9183 356.457 48.4062 359.728C54.8733 363.58 54.2811 354.428 37.2721 415.352C36.9789 416.396 36.9789 417.17 37.3131 417.75C37.6473 418.33 38.3216 418.717 39.3711 418.987C100.641 434.718 93.0073 429.629 93.1128 437.157C93.2008 443.542 93.3356 452.841 93.1011 460.211C93.0542 461.765 93.0249 462.621 93.3591 463.195C93.4177 463.295 93.4822 463.383 93.5526 463.459C93.6288 463.53 93.7167 463.594 93.8164 463.653C94.391 463.987 95.247 463.958 96.8007 463.911C104.171 463.676 113.464 463.811 119.855 463.899C127.383 464.004 122.294 456.371 138.025 517.641C138.294 518.69 138.681 519.364 139.262 519.699C139.842 520.033 140.616 520.033 141.66 519.74C202.59 502.725 193.431 502.133 197.284 508.605C200.555 514.093 205.322 522.079 208.799 528.575C209.532 529.947 209.936 530.698 210.511 531.032C210.611 531.091 210.71 531.132 210.81 531.167C210.915 531.19 211.021 531.202 211.138 531.202C211.801 531.202 212.528 530.751 213.853 529.93C220.115 526.042 228.235 521.51 233.811 518.391C240.384 514.715 232.158 510.652 276.413 555.851C277.169 556.625 277.843 557.012 278.512 557.012C279.18 557.012 279.854 556.625 280.611 555.851C324.866 510.652 316.646 514.721 323.212 518.391C328.788 521.51 336.909 526.042 343.171 529.93C344.49 530.751 345.217 531.202 345.885 531.202C346.003 531.202 346.108 531.19 346.214 531.167C346.313 531.138 346.413 531.091 346.513 531.032C347.087 530.698 347.492 529.947 348.225 528.575C351.702 522.079 356.468 514.093 359.74 508.605C363.592 502.138 354.44 502.731 415.364 519.74C416.407 520.033 417.181 520.033 417.762 519.699C418.342 519.364 418.729 518.69 418.999 517.641C434.73 456.371 429.641 464.004 437.169 463.899C443.554 463.811 452.853 463.676 460.223 463.911C461.776 463.958 462.633 463.987 463.207 463.653C463.307 463.594 463.395 463.53 463.471 463.459C463.541 463.383 463.606 463.295 463.664 463.195C463.999 462.621 463.969 461.765 463.922 460.211C463.688 452.841 463.823 443.548 463.911 437.157C464.016 429.629 456.382 434.718 517.652 418.987C518.702 418.717 519.376 418.33 519.71 417.75C520.045 417.17 520.044 416.396 519.751 415.352C502.736 354.422 502.144 363.58 508.617 359.728C514.105 356.457 522.091 351.69 528.587 348.213C529.959 347.48 530.71 347.075 531.044 346.501C531.102 346.401 531.143 346.302 531.179 346.202C531.202 346.102 531.214 345.991 531.214 345.874C531.214 345.211 530.762 344.484 529.942 343.159C526.054 336.897 521.522 328.777 518.403 323.201C514.703 316.628 510.64 324.854 555.839 280.599ZM551.489 276.747H540.706C539.129 276.747 537.605 276.161 536.438 275.099C506.817 248.328 508.189 251.952 514.346 240.747C521.891 247.607 545.667 270.151 551.489 276.747ZM498.574 278.5C489.75 284.797 494.505 284.891 481.014 278.5C494.505 272.109 489.75 272.203 498.574 278.5ZM494.288 271.482C501.406 263.567 497.442 261.01 515.067 276.741C505.879 276.741 502.695 276.735 501.57 276.741C501.112 276.741 500.679 276.571 500.338 276.266C499.095 275.158 497.084 273.704 494.288 271.482ZM500.338 280.734C500.679 280.429 501.112 280.259 501.57 280.259C502.695 280.259 505.885 280.259 515.067 280.259C497.442 295.996 501.406 293.439 494.288 285.518C497.084 283.296 499.095 281.842 500.338 280.734ZM517.371 282.147C518.854 280.921 520.713 280.253 522.63 280.253H533.477C533.377 280.388 533.266 280.517 533.137 280.64L507.955 304.157L502.138 294.829C502.279 294.612 512.657 286.04 517.371 282.147ZM522.636 276.747C520.713 276.747 518.854 276.078 517.377 274.853C512.663 270.954 502.279 262.388 502.144 262.165L507.961 252.837L533.143 276.354C533.272 276.471 533.383 276.606 533.483 276.741H522.636V276.747ZM462.615 276.489L461.612 272.273C492.142 270.168 497.964 253.259 517.611 217.816C518.245 216.673 519.312 215.829 520.578 215.5C522.314 215.049 524.031 214.556 525.744 214.023C496.035 267.483 494.276 278.383 462.615 276.489ZM393.635 446.415C368.189 427.776 388.78 426.926 389.161 404.335C399.797 423.021 388.739 426.398 393.635 446.415ZM347.65 482.579C338.82 465.013 331.661 472.055 337.753 459.502C359.154 485.927 365.621 472.875 351.696 500.79C352.464 494.106 350.91 489.064 347.65 482.579ZM338.891 450.502C371.847 466.567 368.435 464.151 362.589 480.679C354.305 468.261 339.113 464.491 338.891 450.502ZM332.148 437.257C351.901 448.215 362.935 430.813 366.354 462.169C351.467 447.922 343.012 455.808 332.148 437.257ZM320.656 489.814C321.072 497.055 322.251 502.203 326.255 507.609C300.235 490.395 312.366 498.468 317.684 464.878C329.24 472.705 319.519 470.19 320.656 489.814ZM239.317 464.878C244.634 498.468 256.765 490.395 230.745 507.609C234.755 502.197 235.928 497.055 236.344 489.814C237.481 470.19 227.76 472.705 239.317 464.878ZM205.304 500.79C191.379 472.87 197.846 485.927 219.247 459.502C225.345 472.055 218.18 465.013 209.35 482.579C206.09 489.064 204.536 494.106 205.304 500.79ZM194.411 480.673C188.565 464.151 185.153 466.561 218.109 450.496C217.887 464.491 202.695 468.261 194.411 480.673ZM190.646 462.169C194.065 430.813 205.099 448.221 224.852 437.257C213.988 455.808 205.533 447.922 190.646 462.169ZM167.833 404.341C168.22 426.926 188.805 427.782 163.359 446.421C168.261 426.398 157.203 423.021 167.833 404.341ZM163.365 110.585C188.811 129.224 168.22 130.074 167.839 152.665C157.203 133.979 168.261 130.602 163.365 110.585ZM209.35 74.4211C218.18 91.9871 225.339 84.9454 219.247 97.4984C197.846 71.0732 191.379 84.1246 205.304 56.2101C204.536 62.8941 206.09 67.9364 209.35 74.4211ZM218.109 106.498C185.153 90.4333 188.565 92.849 194.411 76.3207C202.695 88.7389 217.887 92.5089 218.109 106.498ZM224.852 119.743C205.099 108.785 194.065 126.187 190.646 94.8307C205.533 109.078 213.988 101.192 224.852 119.743ZM236.344 67.1859C235.928 59.9449 234.749 54.7971 230.745 49.3912C256.765 66.6055 244.634 58.5319 239.317 92.1219C227.76 84.2946 237.481 86.8099 236.344 67.1859ZM317.684 92.1219C312.366 58.5319 300.235 66.6055 326.255 49.3912C322.245 54.8029 321.072 59.9449 320.656 67.1859C319.519 86.8099 329.24 84.2946 317.684 92.1219ZM351.696 56.2101C365.621 84.1304 359.154 71.0732 337.753 97.4984C331.655 84.9454 338.82 91.9871 347.65 74.4211C350.91 67.9364 352.464 62.8941 351.696 56.2101ZM362.589 76.3266C368.435 92.849 371.847 90.4392 338.891 106.504C339.113 92.5089 354.305 88.7389 362.589 76.3266ZM366.354 94.8307C362.935 126.187 351.901 108.779 332.148 119.743C343.012 101.192 351.467 109.078 366.354 94.8307ZM389.167 152.659C388.78 130.074 368.195 129.218 393.641 110.579C388.739 130.602 399.797 133.979 389.167 152.659ZM287.312 433.305C293.832 427.108 294.02 422.417 295.362 417.938L303.166 419.661C303.184 430.538 292.859 445.635 280.253 447.171V436.993C282.716 436.688 285.032 435.474 287.312 433.305ZM280.253 433.686V423.66C281.385 423.197 282.452 422.294 283.325 420.922C284.838 418.541 285.806 415.803 286.955 413.224C291.323 416.02 292.361 416.601 292.284 417.175C290.25 427.958 284.609 432.648 280.253 433.686ZM280.083 386.88C289.57 385.942 299.537 378.684 300.37 369.572C304.685 384.078 305.236 384.764 303.794 385.89C293.322 394.086 297.303 410.814 309.076 411.488C309.909 411.535 310.736 411.723 311.474 412.104C311.943 412.35 312.366 412.661 312.676 413.112C313.368 414.121 313.468 415.422 313.538 416.613C313.544 416.712 313.562 416.812 313.591 416.906C310.431 417.457 307.241 417.257 303.753 416.607C289.693 413.957 281.754 408.662 280.083 386.88ZM269.688 123.695C263.168 129.892 262.98 134.583 261.638 139.062L253.834 137.339C253.816 126.462 264.141 111.365 276.747 109.829V120.007C274.284 120.312 271.968 121.526 269.688 123.695ZM276.747 123.314V133.34C275.615 133.803 274.548 134.706 273.675 136.078C272.162 138.458 271.195 141.197 270.045 143.776C265.677 140.98 264.639 140.399 264.716 139.825C266.75 129.042 272.391 124.352 276.747 123.314ZM276.917 170.12C267.43 171.058 257.463 178.316 256.63 187.428C252.315 172.922 251.764 172.236 253.206 171.11C263.678 162.914 259.697 146.186 247.924 145.512C247.091 145.465 246.264 145.277 245.526 144.896C245.057 144.65 244.634 144.339 244.324 143.888C243.632 142.879 243.532 141.578 243.462 140.387C243.456 140.288 243.438 140.188 243.409 140.094C246.569 139.543 249.759 139.742 253.247 140.393C267.307 143.043 275.246 148.338 276.917 170.12ZM433.686 276.747H423.66C423.197 275.615 422.294 274.548 420.922 273.675C418.542 272.162 415.803 271.194 413.224 270.045C416.02 265.677 416.601 264.639 417.175 264.716C427.958 266.75 432.648 272.391 433.686 276.747ZM417.938 261.632L419.661 253.828C430.538 253.81 445.635 264.135 447.171 276.741H436.993C436.688 274.284 435.474 271.963 433.305 269.682C427.113 263.168 422.417 262.98 417.938 261.632ZM420.054 278.5C420.054 279.139 419.702 279.784 419.011 280.224C409.811 286.093 409.606 283.636 399.445 278.5C409.606 273.37 409.805 270.907 419.011 276.776C419.702 277.216 420.054 277.861 420.054 278.5ZM416.595 253.242C413.957 267.307 408.656 275.24 386.875 276.917C385.937 267.43 378.678 257.463 369.567 256.63C384.072 252.315 384.758 251.764 385.884 253.206C394.08 263.678 410.808 259.697 411.482 247.924C411.529 247.091 411.717 246.264 412.098 245.526C412.344 245.057 412.655 244.634 413.106 244.324C414.115 243.632 415.416 243.532 416.607 243.462C416.706 243.456 416.806 243.438 416.9 243.409C417.451 246.563 417.252 249.759 416.595 253.242ZM356.802 323.705C358.749 320.334 355.8 314.136 344.724 310.712C350.054 307.71 349.784 307.704 353.021 309.17C363.199 313.761 365.058 321.653 362.103 326.766C359.148 331.878 351.391 334.212 342.326 327.698C339.436 325.628 339.577 325.857 339.512 319.741C348.014 327.627 354.856 327.076 356.802 323.705ZM339.324 313.614C339.594 313.145 340.145 312.846 340.784 313.04C347.527 315.086 356.392 318.282 353.918 322.04C351.895 326.062 344.701 319.982 339.559 315.168C339.066 314.711 339.055 314.083 339.324 313.614ZM331.796 306.35C331.849 305.33 332.113 304.298 332.341 303.196C338.128 303.688 346.624 304.398 348.641 297.297C350.447 290.138 342.737 286.503 337.478 284.041C337.835 282.974 338.122 281.948 338.586 281.033C340.368 277.544 356.357 286.503 352.798 298.411C349.925 310.501 331.597 310.267 331.796 306.35ZM278.5 335.689C268.539 335.49 267.647 322.374 270.157 321.694C274.05 320.633 276.794 318.516 278.5 315.227C280.206 318.51 282.944 320.633 286.843 321.694C289.353 322.38 288.462 335.49 278.5 335.689ZM279.731 349.708C281.326 356.568 282.997 365.843 278.5 365.58C274.003 365.843 275.674 356.568 277.269 349.708C277.421 349.057 277.961 348.729 278.5 348.729C279.039 348.729 279.579 349.057 279.731 349.708ZM200.198 323.705C202.144 327.076 208.986 327.622 217.494 319.741C217.429 325.857 217.57 325.628 214.68 327.698C205.615 334.218 197.852 331.878 194.903 326.766C191.954 321.653 193.807 313.761 203.985 309.17C207.222 307.704 206.952 307.71 212.281 310.712C201.2 314.136 198.251 320.334 200.198 323.705ZM217.447 315.168C212.305 319.982 205.105 326.062 203.088 322.04C200.614 318.276 209.479 315.086 216.222 313.04C216.861 312.846 217.412 313.151 217.681 313.614C217.945 314.083 217.934 314.711 217.447 315.168ZM204.208 298.405C200.643 286.497 216.638 277.538 218.42 281.027C218.883 281.936 219.171 282.962 219.528 284.035C214.269 286.503 206.559 290.132 208.365 297.291C210.382 304.392 218.878 303.682 224.664 303.19C224.887 304.292 225.157 305.324 225.21 306.344C225.403 310.267 207.075 310.501 204.208 298.405ZM200.198 233.295C198.251 236.666 201.2 242.864 212.276 246.288C206.946 249.29 207.216 249.296 203.979 247.83C193.801 243.239 191.942 235.347 194.897 230.234C197.852 225.122 205.609 222.788 214.674 229.302C217.564 231.372 217.423 231.143 217.488 237.259C208.986 229.373 202.144 229.918 200.198 233.295ZM217.676 243.386C217.406 243.855 216.855 244.154 216.216 243.96C209.473 241.914 200.608 238.718 203.082 234.96C205.105 230.938 212.299 237.018 217.441 241.832C217.934 242.289 217.945 242.916 217.676 243.386ZM225.204 250.65C225.151 251.67 224.887 252.702 224.659 253.804C218.872 253.312 210.376 252.602 208.359 259.703C206.553 266.862 214.263 270.497 219.523 272.959C219.165 274.026 218.878 275.052 218.414 275.967C216.632 279.456 200.643 270.497 204.202 258.589C207.075 246.499 225.403 246.733 225.204 250.65ZM278.5 221.311C288.462 221.51 289.353 234.626 286.843 235.306C282.95 236.367 280.206 238.484 278.5 241.773C276.794 238.484 274.056 236.367 270.157 235.306C267.647 234.62 268.539 221.51 278.5 221.311ZM277.269 207.292C275.674 200.432 274.003 191.157 278.5 191.42C282.997 191.157 281.326 200.432 279.731 207.292C279.579 207.943 279.039 208.271 278.5 208.271C277.961 208.271 277.421 207.943 277.269 207.292ZM356.802 233.295C354.856 229.924 348.014 229.378 339.506 237.259C339.571 231.143 339.43 231.372 342.32 229.302C351.385 222.782 359.148 225.122 362.097 230.234C365.046 235.347 363.193 243.239 353.015 247.83C349.778 249.296 350.048 249.29 344.719 246.288C355.8 242.864 358.749 236.666 356.802 233.295ZM339.553 241.832C344.695 237.018 351.895 230.938 353.912 234.96C356.386 238.724 347.521 241.914 340.778 243.96C340.139 244.154 339.588 243.849 339.319 243.386C339.055 242.916 339.066 242.289 339.553 241.832ZM352.792 258.595C356.357 270.503 340.362 279.462 338.58 275.973C338.117 275.064 337.829 274.038 337.472 272.965C342.731 270.497 350.441 266.867 348.635 259.709C346.618 252.608 338.122 253.318 332.336 253.81C332.113 252.708 331.843 251.676 331.79 250.656C331.597 246.733 349.925 246.499 352.792 258.595ZM349.708 277.269C356.568 275.674 365.843 274.003 365.58 278.5C365.843 282.997 356.568 281.326 349.708 279.731C349.057 279.579 348.729 279.039 348.729 278.5C348.729 277.961 349.057 277.421 349.708 277.269ZM313.11 313.093C323.113 315.62 325.827 316.335 328.536 320.169C330.225 322.562 329.468 325.44 327.457 327.457C325.446 329.468 322.562 330.225 320.169 328.536C316.335 325.827 315.62 323.113 313.093 313.11C313.099 313.11 313.11 313.116 313.116 313.116C313.11 313.104 313.11 313.098 313.11 313.093ZM311.738 307.323C312.77 303.418 312.301 299.988 310.308 296.869C314.007 297.033 317.214 295.72 320.076 292.876C321.923 291.041 332.834 298.37 328.026 307.1C322.872 315.626 311.076 309.839 311.738 307.323ZM294.553 294.63C294.583 294.635 294.612 294.641 294.647 294.653C294.641 294.624 294.635 294.589 294.624 294.559C297.379 295.181 300.252 296.277 303.33 294.676C307.411 295.04 311.369 304.304 307.798 307.804C304.304 311.375 295.034 307.417 294.671 303.336C296.271 300.258 295.175 297.385 294.553 294.63ZM294.676 253.664C295.04 249.583 304.304 245.625 307.804 249.196C311.375 252.69 307.417 261.96 303.336 262.324C300.258 260.723 297.385 261.825 294.63 262.441C294.635 262.411 294.641 262.382 294.653 262.347C294.624 262.353 294.594 262.359 294.559 262.37C295.175 259.615 296.271 256.742 294.676 253.664ZM311.738 249.677C311.076 247.161 322.872 241.374 328.032 249.9C332.84 258.63 321.928 265.953 320.082 264.124C317.214 261.28 314.007 259.967 310.314 260.131C312.301 257.017 312.77 253.582 311.738 249.677ZM313.093 243.89C315.62 233.887 316.335 231.173 320.169 228.464C322.562 226.775 325.44 227.532 327.457 229.543C329.468 231.554 330.225 234.438 328.536 236.831C325.827 240.665 323.113 241.38 313.11 243.907C313.11 243.901 313.116 243.89 313.116 243.884C313.104 243.89 313.099 243.89 313.093 243.89ZM318.528 267.776C319.876 272.59 311.809 278.635 308.097 276.911C306.233 273.991 303.196 273.505 300.499 272.66C300.522 272.637 300.54 272.613 300.563 272.59C300.534 272.578 300.504 272.572 300.475 272.561C302.392 270.485 304.779 268.544 304.931 265.079C307.276 261.731 317.285 262.933 318.528 267.776ZM304.802 278.5C304.814 280.64 298.599 282.88 288.86 278.5C298.599 274.12 304.814 276.36 304.802 278.5ZM301.278 265.349C302.357 267.196 298.095 272.244 287.471 273.317C293.715 264.663 300.217 263.49 301.278 265.349ZM283.683 269.529C284.762 258.911 289.804 254.643 291.651 255.722C293.51 256.783 292.343 263.285 283.683 269.529ZM287.471 283.683C298.089 284.762 302.357 289.804 301.278 291.651C300.217 293.51 293.715 292.337 287.471 283.683ZM291.651 301.278C289.804 302.357 284.756 298.095 283.683 287.471C292.343 293.715 293.51 300.217 291.651 301.278ZM304.925 291.921C304.773 288.456 302.387 286.515 300.469 284.439C300.499 284.428 300.528 284.422 300.557 284.41C300.534 284.387 300.516 284.363 300.493 284.34C303.19 283.501 306.227 283.015 308.091 280.089C311.803 278.365 319.87 284.41 318.522 289.224C317.285 294.067 307.276 295.269 304.925 291.921ZM325.763 291.176C325.769 291.176 325.781 291.17 325.786 291.17C325.781 291.164 325.775 291.159 325.769 291.153C335.695 288.338 338.404 287.6 342.666 289.57C345.328 290.795 346.108 293.668 345.375 296.418C344.636 299.168 342.52 301.261 339.606 300.997C334.927 300.569 332.951 298.575 325.763 291.176ZM321.694 286.843C320.633 282.95 318.516 280.206 315.227 278.5C318.51 276.794 320.633 274.056 321.694 270.157C322.374 267.647 335.49 268.533 335.689 278.5C335.49 288.461 322.38 289.353 321.694 286.843ZM325.769 265.847C325.775 265.841 325.781 265.836 325.786 265.83C325.781 265.83 325.769 265.824 325.763 265.824C332.951 258.425 334.927 256.431 339.606 256.003C342.52 255.733 344.636 257.832 345.375 260.582C346.108 263.332 345.328 266.205 342.666 267.43C338.398 269.4 335.695 268.662 325.769 265.847ZM329.269 246.27C328.413 245.713 327.651 244.969 326.807 244.218C330.131 239.451 334.992 232.451 329.85 227.15C324.555 222.008 317.549 226.869 312.782 230.193C312.037 229.349 311.287 228.587 310.73 227.731C308.596 224.442 324.35 215.072 332.881 224.113C341.928 232.644 332.558 248.399 329.269 246.27ZM313.04 216.216C315.086 209.473 318.282 200.608 322.04 203.082C326.062 205.105 319.982 212.299 315.168 217.441C314.711 217.928 314.078 217.945 313.614 217.676C313.151 217.406 312.846 216.855 313.04 216.216ZM319.741 217.494C327.622 208.986 327.076 202.144 323.705 200.198C320.334 198.251 314.136 201.2 310.712 212.276C307.71 206.946 307.704 207.216 309.17 203.979C313.761 193.801 321.653 191.942 326.766 194.897C331.878 197.852 334.212 205.609 327.698 214.674C325.634 217.564 325.857 217.429 319.741 217.494ZM307.323 245.262C303.418 244.23 299.988 244.699 296.869 246.692C297.033 242.993 295.72 239.786 292.876 236.924C291.041 235.077 298.37 224.166 307.101 228.974C315.626 234.128 309.839 245.924 307.323 245.262ZM300.997 217.394C300.569 222.073 298.575 224.043 291.176 231.237C291.176 231.231 291.17 231.219 291.17 231.214C291.164 231.219 291.159 231.225 291.153 231.231C288.338 221.305 287.6 218.596 289.57 214.334C290.795 211.672 293.668 210.892 296.418 211.625C299.168 212.364 301.261 214.48 300.997 217.394ZM289.224 238.472C294.067 239.715 295.269 249.718 291.921 252.075C288.456 252.227 286.515 254.613 284.439 256.531C284.428 256.501 284.422 256.472 284.41 256.443C284.387 256.466 284.363 256.484 284.34 256.507C283.495 253.81 283.015 250.773 280.089 248.909C278.365 245.191 284.41 237.13 289.224 238.472ZM278.5 268.14C274.12 258.401 276.36 252.186 278.5 252.198C280.64 252.186 282.88 258.401 278.5 268.14ZM278.5 304.802C276.36 304.814 274.12 298.599 278.5 288.86C282.88 298.599 280.64 304.814 278.5 304.802ZM276.911 248.909C273.991 250.773 273.505 253.81 272.66 256.507C272.637 256.484 272.613 256.466 272.59 256.443C272.578 256.472 272.572 256.501 272.561 256.531C270.485 254.613 268.544 252.227 265.079 252.075C261.725 249.724 262.927 239.715 267.776 238.472C272.59 237.13 278.635 245.191 276.911 248.909ZM262.324 303.336C261.96 307.417 252.696 311.375 249.196 307.804C245.625 304.31 249.583 295.04 253.664 294.676C256.742 296.277 259.615 295.175 262.37 294.559C262.365 294.589 262.359 294.618 262.347 294.653C262.376 294.647 262.406 294.641 262.441 294.63C261.825 297.385 260.729 300.258 262.324 303.336ZM245.262 307.323C245.924 309.839 234.128 315.626 228.968 307.1C224.16 298.37 235.072 291.047 236.918 292.876C239.786 295.72 242.993 297.033 246.687 296.869C244.699 299.983 244.23 303.418 245.262 307.323ZM243.907 313.11C241.38 323.113 240.665 325.827 236.831 328.536C234.438 330.225 231.56 329.468 229.543 327.457C227.532 325.446 226.775 322.562 228.464 320.169C231.173 316.335 233.887 315.62 243.89 313.093C243.89 313.098 243.884 313.11 243.884 313.116C243.896 313.11 243.902 313.11 243.907 313.11ZM243.89 243.907C233.887 241.38 231.173 240.665 228.464 236.831C226.775 234.438 227.532 231.56 229.543 229.543C231.554 227.532 234.438 226.775 236.831 228.464C240.665 231.173 241.38 233.887 243.907 243.89C243.902 243.89 243.89 243.884 243.884 243.884C243.89 243.896 243.89 243.901 243.89 243.907ZM245.262 249.677C244.23 253.582 244.699 257.012 246.692 260.131C242.993 259.967 239.786 261.28 236.924 264.124C235.077 265.959 224.166 258.63 228.974 249.9C234.128 241.374 245.924 247.161 245.262 249.677ZM262.447 262.37C262.417 262.365 262.388 262.359 262.353 262.347C262.359 262.376 262.365 262.411 262.376 262.441C259.621 261.819 256.748 260.723 253.67 262.324C249.589 261.96 245.631 252.696 249.202 249.196C252.696 245.625 261.966 249.583 262.329 253.664C260.729 256.742 261.825 259.615 262.447 262.37ZM255.722 265.349C256.783 263.49 263.285 264.663 269.529 273.317C258.905 272.244 254.637 267.196 255.722 265.349ZM268.14 278.5C258.401 282.88 252.186 280.64 252.198 278.5C252.186 276.36 258.401 274.12 268.14 278.5ZM252.075 265.079C252.227 268.544 254.614 270.485 256.531 272.561C256.501 272.572 256.472 272.578 256.443 272.59C256.466 272.613 256.484 272.637 256.507 272.66C253.81 273.499 250.773 273.985 248.909 276.911C245.197 278.635 237.13 272.59 238.478 267.776C239.715 262.933 249.724 261.731 252.075 265.079ZM231.237 265.824C231.231 265.824 231.22 265.83 231.214 265.83C231.22 265.836 231.225 265.841 231.231 265.847C221.305 268.662 218.596 269.4 214.334 267.43C211.672 266.205 210.892 263.332 211.625 260.582C212.364 257.832 214.48 255.739 217.394 256.003C222.073 256.431 224.049 258.425 231.237 265.824ZM235.306 270.157C236.367 274.05 238.484 276.794 241.773 278.5C238.49 280.206 236.367 282.944 235.306 286.843C234.626 289.353 221.51 288.467 221.311 278.5C221.51 268.538 234.62 267.647 235.306 270.157ZM231.231 291.153C231.225 291.159 231.22 291.164 231.214 291.17C231.22 291.17 231.231 291.176 231.237 291.176C224.049 298.575 222.073 300.569 217.394 300.997C214.48 301.267 212.364 299.168 211.625 296.418C210.892 293.668 211.672 290.795 214.334 289.57C218.602 287.6 221.305 288.338 231.231 291.153ZM238.472 289.224C237.124 284.41 245.191 278.365 248.903 280.089C250.767 283.009 253.804 283.495 256.501 284.34C256.478 284.363 256.46 284.387 256.437 284.41C256.466 284.422 256.496 284.428 256.525 284.439C254.608 286.515 252.221 288.456 252.069 291.921C249.724 295.269 239.715 294.067 238.472 289.224ZM255.722 291.651C254.643 289.804 258.905 284.756 269.529 283.683C263.285 292.337 256.783 293.51 255.722 291.651ZM273.317 287.471C272.238 298.089 267.196 302.357 265.349 301.278C263.49 300.217 264.657 293.715 273.317 287.471ZM265.349 255.722C267.196 254.643 272.244 258.905 273.317 269.529C264.657 263.285 263.49 256.783 265.349 255.722ZM265.847 231.231C265.841 231.225 265.836 231.219 265.83 231.214C265.83 231.219 265.824 231.231 265.824 231.237C258.425 224.049 256.431 222.073 256.003 217.394C255.733 214.48 257.832 212.364 260.582 211.625C263.332 210.892 266.205 211.672 267.43 214.334C269.4 218.602 268.662 221.305 265.847 231.231ZM264.124 236.924C261.28 239.791 259.967 242.993 260.131 246.692C257.012 244.699 253.576 244.23 249.677 245.262C247.161 245.924 241.374 234.128 249.9 228.968C258.63 224.166 265.959 235.077 264.124 236.924ZM233.295 200.198C229.924 202.144 229.378 208.986 237.259 217.494C231.143 217.429 231.372 217.57 229.302 214.68C222.782 205.615 225.122 197.852 230.234 194.903C235.347 191.954 243.239 193.807 247.83 203.985C249.296 207.222 249.29 206.952 246.288 212.281C242.864 201.2 236.666 198.251 233.295 200.198ZM243.386 217.676C242.916 217.945 242.289 217.934 241.832 217.441C237.018 212.299 230.938 205.099 234.96 203.082C238.724 200.608 241.914 209.473 243.96 216.216C244.154 216.855 243.849 217.412 243.386 217.676ZM246.27 227.731C245.713 228.587 244.969 229.349 244.218 230.193C239.451 226.869 232.451 222.008 227.15 227.15C222.008 232.445 226.869 239.451 230.193 244.218C229.349 244.963 228.587 245.713 227.731 246.27C224.442 248.404 215.072 232.65 224.113 224.119C232.644 215.072 248.399 224.442 246.27 227.731ZM208.271 278.5C208.271 279.039 207.943 279.579 207.292 279.731C200.432 281.326 191.157 282.997 191.42 278.5C191.157 274.003 200.432 275.674 207.292 277.269C207.943 277.421 208.271 277.961 208.271 278.5ZM205.046 273.288C193.742 270.714 188.09 274.607 188.09 278.5C188.09 282.393 193.742 286.286 205.046 283.712C201.933 288.977 202.168 288.848 198.632 289.194C187.521 290.308 181.969 284.404 181.969 278.5C181.969 272.596 187.521 266.692 198.632 267.806C202.168 268.152 201.927 268.023 205.046 273.288ZM227.731 310.73C228.587 311.287 229.349 312.031 230.193 312.782C226.869 317.549 222.008 324.549 227.15 329.85C232.445 334.992 239.451 330.131 244.218 326.807C244.963 327.651 245.713 328.413 246.27 329.269C248.404 332.558 232.65 341.928 224.119 332.887C215.072 324.356 224.442 308.601 227.731 310.73ZM243.96 340.784C241.914 347.527 238.718 356.392 234.96 353.918C230.938 351.895 237.018 344.701 241.832 339.559C242.289 339.072 242.922 339.055 243.386 339.324C243.849 339.588 244.154 340.145 243.96 340.784ZM237.259 339.506C229.378 348.014 229.924 354.856 233.295 356.802C236.666 358.749 242.864 355.8 246.288 344.724C249.29 350.054 249.296 349.784 247.83 353.021C243.239 363.199 235.347 365.058 230.234 362.103C225.122 359.148 222.788 351.391 229.302 342.326C231.366 339.43 231.143 339.571 237.259 339.506ZM249.677 311.738C253.582 312.77 257.012 312.301 260.131 310.308C259.967 314.007 261.28 317.214 264.124 320.076C265.959 321.923 258.63 332.834 249.9 328.026C241.374 322.872 247.161 311.076 249.677 311.738ZM256.003 339.606C256.431 334.927 258.425 332.957 265.824 325.763C265.824 325.769 265.83 325.78 265.83 325.786C265.836 325.78 265.841 325.775 265.847 325.769C268.662 335.695 269.4 338.404 267.43 342.666C266.205 345.328 263.332 346.108 260.582 345.375C257.832 344.636 255.739 342.52 256.003 339.606ZM267.776 318.528C262.933 317.285 261.731 307.282 265.079 304.925C268.544 304.773 270.485 302.386 272.561 300.469C272.572 300.499 272.578 300.528 272.59 300.557C272.613 300.534 272.637 300.516 272.66 300.493C273.505 303.19 273.985 306.227 276.911 308.091C278.635 311.809 272.59 319.87 267.776 318.528ZM280.089 308.091C283.009 306.227 283.495 303.19 284.34 300.493C284.363 300.516 284.387 300.534 284.41 300.557C284.422 300.528 284.428 300.499 284.439 300.469C286.515 302.386 288.456 304.773 291.921 304.925C295.275 307.276 294.073 317.285 289.224 318.528C284.41 319.87 278.365 311.809 280.089 308.091ZM291.153 325.769C291.159 325.775 291.164 325.78 291.17 325.786C291.17 325.78 291.176 325.769 291.176 325.763C298.575 332.951 300.569 334.927 300.997 339.606C301.267 342.52 299.168 344.636 296.418 345.375C293.668 346.108 290.795 345.328 289.57 342.666C287.6 338.398 288.338 335.695 291.153 325.769ZM292.876 320.076C295.72 317.209 297.033 314.007 296.869 310.308C299.988 312.301 303.424 312.77 307.323 311.738C309.839 311.076 315.626 322.872 307.101 328.032C298.37 332.834 291.041 321.923 292.876 320.076ZM323.705 356.802C327.076 354.856 327.622 348.014 319.741 339.506C325.857 339.571 325.628 339.43 327.698 342.32C334.218 351.385 331.878 359.148 326.766 362.097C321.653 365.046 313.761 363.193 309.17 353.015C307.704 349.778 307.71 350.048 310.712 344.718C314.136 355.8 320.334 358.749 323.705 356.802ZM313.614 339.324C314.084 339.055 314.711 339.066 315.168 339.559C319.982 344.701 326.062 351.901 322.04 353.918C318.276 356.392 315.086 347.527 313.04 340.784C312.846 340.145 313.151 339.588 313.614 339.324ZM310.73 329.269C311.287 328.413 312.031 327.651 312.782 326.807C317.549 330.131 324.549 334.992 329.85 329.85C334.992 324.555 330.131 317.549 326.807 312.782C327.651 312.037 328.413 311.287 329.269 310.73C332.558 308.596 341.928 324.35 332.887 332.881C324.356 341.928 308.601 332.558 310.73 329.269ZM351.954 283.712C363.258 286.286 368.91 282.393 368.91 278.5C368.91 274.607 363.258 270.714 351.954 273.288C355.067 268.023 354.832 268.152 358.368 267.806C369.479 266.692 375.031 272.596 375.031 278.5C375.031 284.404 369.479 290.308 358.368 289.194C354.832 288.848 355.073 288.977 351.954 283.712ZM352.64 251.336C352.687 251.307 352.728 251.283 352.769 251.254C353.015 251.101 353.197 250.99 353.367 250.926C366.588 245.983 368.64 235.629 364.671 228.745C360.696 221.868 350.699 218.473 339.811 227.449C339.67 227.567 339.483 227.666 339.225 227.801C339.184 227.825 339.137 227.848 339.09 227.872C337.319 224.87 336.24 223.504 337.178 222.571C347.281 212.487 362.677 216.468 368.476 226.552C374.31 236.614 370.059 251.934 356.275 255.645C354.997 255.985 354.352 254.367 352.64 251.336ZM334.429 219.822C333.496 220.754 332.124 219.675 329.128 217.91C329.152 217.863 329.175 217.816 329.199 217.775C329.339 217.517 329.439 217.33 329.551 217.189C338.527 206.301 335.132 196.299 328.255 192.329C321.377 188.36 311.017 190.418 306.074 203.633C306.01 203.803 305.899 203.985 305.746 204.231C305.723 204.272 305.693 204.313 305.664 204.36C302.633 202.648 301.015 201.998 301.355 200.725C305.066 186.941 320.386 182.69 330.448 188.524C340.532 194.323 344.507 209.719 334.429 219.822ZM306.35 225.204C305.33 225.151 304.298 224.881 303.196 224.659C303.688 218.872 304.398 210.376 297.297 208.359C290.138 206.553 286.503 214.263 284.041 219.522C282.974 219.165 281.948 218.878 281.033 218.414C277.544 216.632 286.503 200.643 298.411 204.202C310.501 207.075 310.267 225.403 306.35 225.204ZM289.194 198.632C288.848 202.168 288.977 201.933 283.712 205.046C286.286 193.742 282.393 188.09 278.5 188.09C274.607 188.09 270.714 193.742 273.288 205.046C268.023 201.933 268.152 202.168 267.806 198.632C266.692 187.521 272.596 181.969 278.5 181.969C284.404 181.969 290.308 187.521 289.194 198.632ZM275.967 218.42C275.058 218.883 274.032 219.171 272.959 219.528C270.491 214.269 266.862 206.559 259.703 208.365C252.602 210.382 253.312 218.878 253.804 224.664C252.702 224.887 251.67 225.157 250.65 225.21C246.733 225.409 246.499 207.081 258.595 204.214C270.503 200.643 279.462 216.632 275.967 218.42ZM251.336 204.36C251.307 204.313 251.283 204.272 251.254 204.231C251.101 203.985 250.99 203.803 250.926 203.633C245.983 190.412 235.629 188.36 228.745 192.329C221.868 196.299 218.473 206.301 227.449 217.189C227.567 217.33 227.666 217.517 227.801 217.775C227.825 217.816 227.848 217.863 227.872 217.91C224.87 219.681 223.504 220.754 222.571 219.822C212.487 209.719 216.468 194.323 226.552 188.524C236.614 182.69 251.934 186.941 255.645 200.725C255.985 202.003 254.367 202.648 251.336 204.36ZM219.822 222.571C220.754 223.504 219.675 224.876 217.91 227.872C217.863 227.848 217.816 227.825 217.775 227.801C217.517 227.661 217.33 227.561 217.189 227.449C206.301 218.473 196.299 221.868 192.329 228.745C188.36 235.623 190.418 245.983 203.633 250.926C203.803 250.99 203.985 251.101 204.231 251.254C204.272 251.277 204.313 251.307 204.36 251.336C202.648 254.367 201.998 255.985 200.725 255.645C186.941 251.934 182.69 236.614 188.524 226.552C194.323 216.468 209.719 212.493 219.822 222.571ZM199.717 259.404C200.995 259.744 200.743 261.468 200.713 264.95C200.661 264.95 200.608 264.956 200.561 264.956C200.268 264.968 200.057 264.974 199.875 264.944C185.956 262.617 178.996 270.555 178.996 278.5C178.996 286.445 185.962 294.383 199.875 292.056C200.057 292.026 200.268 292.032 200.561 292.044C200.608 292.044 200.661 292.044 200.713 292.05C200.743 295.532 200.995 297.256 199.717 297.596C185.927 301.272 174.581 290.132 174.605 278.5C174.581 266.867 185.927 255.727 199.717 259.404ZM200.725 301.355C202.003 301.014 202.648 302.633 204.36 305.664C204.313 305.693 204.272 305.717 204.231 305.746C203.985 305.898 203.803 306.01 203.633 306.074C190.412 311.017 188.36 321.371 192.329 328.255C196.304 335.132 206.301 338.527 217.189 329.551C217.33 329.433 217.517 329.334 217.775 329.199C217.816 329.175 217.863 329.152 217.91 329.128C219.681 332.13 220.754 333.496 219.822 334.429C209.719 344.513 194.323 340.532 188.524 330.448C182.69 320.386 186.947 305.066 200.725 301.355ZM222.571 337.178C223.504 336.246 224.876 337.325 227.872 339.09C227.848 339.137 227.825 339.184 227.801 339.225C227.661 339.483 227.561 339.67 227.449 339.811C218.473 350.699 221.868 360.701 228.745 364.671C235.623 368.64 245.983 366.582 250.926 353.367C250.99 353.197 251.101 353.015 251.254 352.769C251.277 352.728 251.307 352.687 251.336 352.64C254.367 354.352 255.985 355.002 255.645 356.275C251.934 370.059 236.614 374.31 226.552 368.476C216.468 362.677 212.493 347.281 222.571 337.178ZM250.65 331.796C251.67 331.849 252.702 332.119 253.804 332.341C253.312 338.128 252.602 346.624 259.703 348.641C266.862 350.447 270.497 342.737 272.959 337.478C274.026 337.835 275.052 338.122 275.967 338.586C279.456 340.368 270.497 356.357 258.589 352.798C246.499 349.925 246.733 331.597 250.65 331.796ZM267.806 358.368C268.152 354.832 268.023 355.067 273.288 351.954C270.714 363.258 274.607 368.91 278.5 368.91C282.393 368.91 286.286 363.258 283.712 351.954C288.977 355.067 288.848 354.832 289.194 358.368C290.308 369.479 284.404 375.031 278.5 375.031C272.596 375.031 266.692 369.479 267.806 358.368ZM281.033 338.58C281.942 338.117 282.968 337.829 284.041 337.472C286.509 342.731 290.138 350.441 297.297 348.635C304.398 346.618 303.688 338.122 303.196 332.336C304.298 332.113 305.33 331.843 306.35 331.79C310.267 331.591 310.501 349.919 298.405 352.786C286.497 356.357 277.538 340.368 281.033 338.58ZM305.664 352.64C305.693 352.687 305.717 352.728 305.746 352.769C305.899 353.015 306.01 353.197 306.074 353.367C311.017 366.588 321.371 368.64 328.255 364.671C335.132 360.701 338.527 350.699 329.551 339.811C329.433 339.67 329.334 339.483 329.199 339.225C329.175 339.184 329.152 339.137 329.128 339.09C332.13 337.319 333.496 336.246 334.429 337.178C344.513 347.281 340.532 362.677 330.448 368.476C320.386 374.31 305.066 370.059 301.355 356.275C301.015 354.997 302.633 354.352 305.664 352.64ZM337.178 334.429C336.246 333.496 337.325 332.124 339.09 329.128C339.137 329.152 339.184 329.175 339.225 329.199C339.483 329.339 339.67 329.439 339.811 329.551C350.699 338.527 360.701 335.132 364.671 328.255C368.64 321.377 366.582 311.017 353.367 306.074C353.197 306.01 353.015 305.898 352.769 305.746C352.728 305.723 352.687 305.693 352.64 305.664C354.352 302.633 355.003 301.014 356.275 301.355C370.059 305.066 374.31 320.386 368.476 330.448C362.677 340.532 347.281 344.507 337.178 334.429ZM357.283 297.596C356.005 297.256 356.257 295.532 356.287 292.05C356.339 292.05 356.392 292.044 356.439 292.044C356.732 292.032 356.943 292.026 357.125 292.056C371.044 294.383 378.004 286.445 378.004 278.5C378.004 270.555 371.038 262.617 357.125 264.944C356.943 264.974 356.732 264.968 356.439 264.956C356.392 264.956 356.339 264.956 356.287 264.95C356.257 261.468 356.005 259.744 357.283 259.404C371.073 255.727 382.419 266.867 382.395 278.5C382.419 290.132 371.073 301.272 357.283 297.596ZM406.944 244.083C410.38 256.179 390.545 259.668 387.719 249.237C384.952 238.789 403.878 231.888 406.944 244.083ZM415.622 239.791C414.56 240.325 413.382 240.888 412.162 240.794C411.617 240.753 411.136 240.542 410.691 240.255C409.987 239.809 409.413 239.182 408.955 238.484C402.488 228.622 386.007 233.541 384.148 246.71C383.896 248.516 383.023 248.381 368.306 251.899C375.782 246.622 377.083 234.362 373.149 225.679C392.849 216.239 401.404 220.461 410.726 231.325C413.036 234.016 414.801 236.684 415.903 239.692C415.809 239.715 415.715 239.745 415.622 239.791ZM404.247 211.472C404.998 210.03 405.25 208.652 405.086 207.444L413.769 202.431C415.047 206.723 413.81 213.947 405.478 221.111C405.021 221.469 404.001 220.859 399.392 218.473C401.058 216.18 402.946 213.97 404.247 211.472ZM403.332 204.401C402.365 203.651 401.046 203.182 399.422 203.112C396.607 202.994 393.746 203.522 390.938 203.815C391.178 198.632 391.155 197.448 391.694 197.225C402.06 193.596 408.938 196.134 412.016 199.388L403.332 204.401ZM407.689 223.386C410.89 219.98 414.865 217.476 416.97 208.728C417.709 205.674 417.598 203.053 416.63 200.772L425.448 195.683C430.42 207.368 422.511 223.861 413.083 229.279L407.689 223.386ZM414.883 197.735C413.388 195.759 411.177 194.358 408.164 193.467C399.539 190.916 395.382 193.103 390.826 194.176L388.417 186.56C397.827 181.107 416.061 182.497 423.695 192.652L414.883 197.735ZM399.328 206.753C400.149 206.788 400.77 207.169 401.093 207.726C401.415 208.283 401.433 209.01 401.052 209.737C396.015 219.423 394.614 217.394 383.251 218.027C389.478 208.5 388.423 206.272 399.328 206.753ZM371.566 222.941C366.008 215.19 354.745 210.194 346.436 214.023C356.844 203.035 357.16 202.214 358.855 202.9C371.185 207.872 383.685 196.058 378.379 185.528C378.004 184.783 377.752 183.974 377.711 183.142C377.687 182.614 377.746 182.092 377.98 181.594C378.508 180.486 379.587 179.753 380.578 179.096C380.66 179.043 380.736 178.973 380.806 178.903C382.864 181.359 384.283 184.226 385.462 187.574C390.211 201.077 389.595 210.599 371.566 222.941ZM372.527 184.473C381.551 193.232 366.119 206.166 358.456 198.544C350.834 190.881 363.774 175.443 372.527 184.473ZM377.898 176.417C377.247 177.413 376.509 178.486 375.4 179.014C374.908 179.248 374.386 179.307 373.853 179.284C373.02 179.248 372.211 178.99 371.466 178.615C360.936 173.309 349.122 185.809 354.094 198.14C354.78 199.834 353.959 200.151 342.971 210.558C346.806 202.25 341.805 190.981 334.053 185.428C346.395 167.399 355.917 166.783 369.414 171.533C372.762 172.711 375.623 174.13 378.086 176.188C378.021 176.258 377.957 176.334 377.898 176.417ZM353.889 157.578C353.818 155.954 353.349 154.635 352.599 153.667L357.612 144.984C360.866 148.062 363.404 154.94 359.775 165.306C359.552 165.845 358.368 165.828 353.185 166.062C353.478 163.254 354.006 160.398 353.889 157.578ZM349.556 151.914C348.342 151.75 346.964 151.996 345.528 152.753C343.03 154.06 340.82 155.942 338.533 157.608C336.147 152.999 335.537 151.979 335.894 151.522C343.059 143.196 350.283 141.953 354.574 143.231L349.556 151.914ZM338.973 173.755C339.606 162.392 337.577 160.985 347.263 155.948C347.99 155.567 348.717 155.585 349.274 155.907C349.831 156.23 350.206 156.851 350.247 157.672C350.728 168.578 348.5 167.522 338.973 173.755ZM370.446 168.583L362.83 166.174C363.903 161.624 366.09 157.467 363.539 148.836C362.648 145.823 361.247 143.612 359.271 142.117L364.36 133.299C374.503 140.939 375.899 159.173 370.446 168.583ZM356.228 140.364C353.947 139.402 351.332 139.291 348.272 140.024C339.53 142.129 337.02 146.104 333.614 149.305L327.715 143.911C333.139 134.483 349.626 126.574 361.311 131.546L356.228 140.364ZM331.321 183.851C322.632 179.917 310.378 181.224 305.101 188.694C308.619 173.977 308.484 173.11 310.29 172.852C323.459 170.993 328.372 154.512 318.516 148.045C317.818 147.587 317.197 147.013 316.745 146.309C316.464 145.864 316.253 145.383 316.206 144.838C316.112 143.612 316.675 142.44 317.209 141.378C317.255 141.29 317.285 141.197 317.308 141.097C320.316 142.199 322.984 143.964 325.675 146.274C336.539 155.596 340.761 164.151 331.321 183.851ZM307.763 169.275C297.332 166.449 300.815 146.614 312.917 150.05C325.112 153.122 318.211 172.048 307.763 169.275ZM313.538 140.393C313.468 141.584 313.368 142.879 312.676 143.894C312.366 144.345 311.943 144.656 311.474 144.902C310.736 145.289 309.909 145.471 309.076 145.518C297.303 146.192 293.322 162.92 303.794 171.116C305.23 172.242 304.679 172.928 300.37 187.433C299.537 178.322 289.57 171.063 280.083 170.125C281.754 148.344 289.693 143.049 303.759 140.405C307.247 139.748 310.437 139.555 313.597 140.106C313.568 140.194 313.544 140.294 313.538 140.393ZM297.596 199.717C297.256 200.995 295.532 200.743 292.05 200.713C292.05 200.661 292.044 200.608 292.044 200.561C292.032 200.268 292.026 200.057 292.056 199.875C294.383 185.956 286.445 178.996 278.5 178.996C270.555 178.996 262.617 185.962 264.944 199.875C264.974 200.057 264.968 200.268 264.956 200.561C264.956 200.608 264.956 200.661 264.95 200.713C261.468 200.743 259.744 200.995 259.404 199.717C255.722 185.927 266.867 174.581 278.5 174.605C290.133 174.581 301.273 185.927 297.596 199.717ZM244.083 150.056C256.179 146.62 259.668 166.455 249.237 169.281C238.789 172.048 231.888 153.122 244.083 150.056ZM240.794 144.838C240.753 145.383 240.542 145.864 240.255 146.309C239.809 147.013 239.182 147.587 238.484 148.045C228.622 154.512 233.541 170.993 246.71 172.852C248.516 173.104 248.381 173.977 251.899 188.694C246.622 181.218 234.362 179.917 225.679 183.851C216.239 164.151 220.461 155.596 231.325 146.28C234.016 143.97 236.684 142.205 239.692 141.103C239.715 141.197 239.745 141.29 239.791 141.384C240.325 142.44 240.894 143.612 240.794 144.838ZM211.472 152.753C210.03 152.002 208.652 151.75 207.444 151.914L202.431 143.231C206.723 141.953 213.947 143.19 221.111 151.522C221.469 151.979 220.859 152.999 218.473 157.608C216.18 155.942 213.97 154.054 211.472 152.753ZM218.027 173.755C208.506 167.522 206.272 168.578 206.753 157.672C206.788 156.851 207.169 156.23 207.726 155.907C208.283 155.585 209.01 155.567 209.737 155.948C219.423 160.985 217.388 162.392 218.027 173.755ZM203.815 166.062C198.632 165.822 197.448 165.845 197.225 165.306C193.596 154.94 196.134 148.062 199.388 144.984L204.401 153.667C203.651 154.635 203.176 155.954 203.112 157.578C202.994 160.398 203.522 163.254 203.815 166.062ZM223.386 149.311C219.98 146.11 217.476 142.135 208.728 140.03C205.674 139.291 203.053 139.402 200.772 140.37L195.683 131.552C207.368 126.58 223.861 134.489 229.279 143.917L223.386 149.311ZM197.735 142.117C195.759 143.612 194.358 145.823 193.467 148.836C190.916 157.461 193.103 161.618 194.176 166.174L186.56 168.583C181.107 159.173 182.497 140.939 192.646 133.305L197.735 142.117ZM187.58 171.533C201.083 166.783 210.605 167.405 222.941 185.428C215.19 190.986 210.194 202.25 214.023 210.558C203.035 200.151 202.214 199.834 202.9 198.14C207.872 185.809 196.058 173.309 185.528 178.615C184.783 178.99 183.974 179.243 183.142 179.284C182.614 179.307 182.092 179.248 181.594 179.014C180.486 178.486 179.753 177.407 179.096 176.417C179.043 176.334 178.973 176.258 178.903 176.188C181.371 174.136 184.232 172.711 187.58 171.533ZM198.544 198.544C190.881 206.166 175.443 193.226 184.473 184.473C193.226 175.443 206.166 190.881 198.544 198.544ZM179.014 181.6C179.248 182.092 179.307 182.62 179.284 183.147C179.248 183.98 178.99 184.789 178.615 185.534C173.309 196.064 185.809 207.878 198.14 202.906C199.834 202.22 200.151 203.041 210.558 214.029C202.25 210.194 190.981 215.195 185.428 222.947C167.399 210.605 166.783 201.083 171.533 187.586C172.711 184.238 174.13 181.377 176.188 178.914C176.258 178.985 176.329 179.049 176.417 179.108C177.413 179.753 178.486 180.491 179.014 181.6ZM173.755 218.027C162.392 217.394 160.985 219.423 155.954 209.737C155.573 209.01 155.591 208.283 155.913 207.726C156.236 207.169 156.857 206.794 157.678 206.753C168.578 206.272 167.522 208.5 173.755 218.027ZM151.914 207.444C151.75 208.658 151.997 210.036 152.753 211.472C154.06 213.97 155.942 216.18 157.608 218.467C152.999 220.853 151.979 221.463 151.522 221.106C143.196 213.941 141.953 206.717 143.231 202.426L151.914 207.444ZM144.984 199.388C148.062 196.134 154.94 193.596 165.306 197.225C165.845 197.448 165.828 198.632 166.062 203.815C163.254 203.522 160.393 202.988 157.578 203.112C155.954 203.182 154.635 203.651 153.668 204.401L144.984 199.388ZM166.174 194.176C161.624 193.103 157.467 190.916 148.836 193.467C145.823 194.358 143.612 195.759 142.117 197.735L133.299 192.646C140.933 182.497 159.173 181.101 168.578 186.554L166.174 194.176ZM140.364 200.772C139.402 203.053 139.291 205.668 140.024 208.728C142.129 217.476 146.104 219.98 149.305 223.386L143.911 229.285C134.483 223.861 126.574 207.374 131.546 195.689L140.364 200.772ZM146.28 231.325C155.596 220.461 164.151 216.239 183.857 225.679C179.923 234.368 181.23 246.622 188.7 251.899C173.983 248.381 173.116 248.516 172.858 246.71C170.999 233.541 154.518 228.628 148.051 238.484C147.593 239.182 147.019 239.803 146.315 240.255C145.87 240.536 145.389 240.747 144.843 240.794C143.624 240.888 142.445 240.325 141.384 239.791C141.296 239.745 141.202 239.715 141.103 239.692C142.199 236.684 143.97 234.016 146.28 231.325ZM169.275 249.231C166.449 259.662 146.614 256.179 150.05 244.077C153.122 231.888 172.049 238.789 169.275 249.231ZM143.894 244.324C144.345 244.634 144.656 245.057 144.902 245.526C145.289 246.264 145.471 247.091 145.518 247.924C146.192 259.697 162.92 263.678 171.116 253.206C172.242 251.77 172.928 252.321 187.433 256.63C178.322 257.463 171.064 267.43 170.125 276.917C148.344 275.24 143.043 267.307 140.405 253.242C139.748 249.753 139.555 246.563 140.106 243.403C140.2 243.432 140.294 243.45 140.399 243.456C141.584 243.526 142.879 243.626 143.894 244.324ZM157.555 278.5C147.394 283.63 147.195 286.093 137.989 280.224C137.298 279.784 136.952 279.145 136.946 278.5C136.946 277.861 137.298 277.216 137.989 276.776C147.189 270.907 147.394 273.37 157.555 278.5ZM139.836 264.71C140.411 264.634 140.991 265.666 143.788 270.039C141.208 271.189 138.47 272.162 136.09 273.669C134.718 274.542 133.809 275.609 133.352 276.741H123.326C124.352 272.391 129.042 266.75 139.836 264.71ZM123.695 269.688C121.532 271.968 120.318 274.29 120.007 276.747H109.829C111.365 264.141 126.462 253.816 137.339 253.834L139.062 261.638C134.583 262.98 129.887 263.168 123.695 269.688ZM136.811 250.492C136.207 250.65 135.715 250.791 135.193 250.914C132.343 251.606 129.294 251.957 126.55 253.077C113.177 258.554 107.266 267.624 106.88 276.741H97.7975C99.873 257.563 118.717 240.044 136.811 243.479V250.492ZM106.88 280.253C107.261 289.37 113.177 298.446 126.55 303.917C129.294 305.042 132.343 305.394 135.193 306.08C135.715 306.209 136.207 306.344 136.811 306.502V313.509C118.717 316.945 99.8789 299.42 97.7975 280.247H106.88V280.253ZM109.829 280.253H120.007C120.312 282.71 121.526 285.032 123.695 287.312C129.892 293.832 134.583 294.02 139.062 295.362L137.339 303.166C126.462 303.19 111.365 292.865 109.829 280.253ZM123.314 280.253H133.34C133.803 281.385 134.706 282.452 136.078 283.325C138.458 284.838 141.197 285.805 143.776 286.955C140.98 291.323 140.399 292.361 139.825 292.284C129.042 290.25 124.352 284.609 123.314 280.253ZM140.405 303.758C143.043 289.693 148.344 281.76 170.125 280.083C171.064 289.57 178.322 299.537 187.433 300.37C172.928 304.685 172.242 305.236 171.116 303.794C162.92 293.322 146.192 297.303 145.518 309.076C145.471 309.909 145.283 310.736 144.902 311.474C144.656 311.943 144.345 312.366 143.894 312.676C142.885 313.368 141.584 313.468 140.393 313.538C140.294 313.544 140.194 313.562 140.1 313.591C139.549 310.437 139.748 307.241 140.405 303.758ZM150.056 312.917C146.62 300.821 166.455 297.332 169.281 307.763C172.049 318.211 153.122 325.112 150.056 312.917ZM141.378 317.209C142.44 316.675 143.618 316.112 144.838 316.206C145.383 316.247 145.864 316.458 146.309 316.745C147.013 317.191 147.587 317.818 148.045 318.516C154.512 328.378 170.993 323.459 172.852 310.29C173.104 308.484 173.977 308.619 188.694 305.101C181.218 310.378 179.917 322.638 183.851 331.321C164.151 340.761 155.596 336.539 146.274 325.675C143.964 322.984 142.199 320.316 141.097 317.308C141.191 317.285 141.285 317.255 141.378 317.209ZM152.753 345.528C152.002 346.97 151.75 348.348 151.914 349.556L143.231 354.569C141.953 350.277 143.19 343.053 151.522 335.889C151.979 335.531 152.999 336.141 157.608 338.527C155.942 340.819 154.054 343.03 152.753 345.528ZM153.668 352.599C154.635 353.349 155.954 353.818 157.578 353.888C160.393 354.006 163.254 353.478 166.062 353.185C165.822 358.368 165.845 359.552 165.306 359.775C154.94 363.404 148.062 360.866 144.984 357.612L153.668 352.599ZM149.311 333.614C146.11 337.02 142.135 339.524 140.03 348.272C139.291 351.326 139.402 353.947 140.37 356.228L131.552 361.317C126.58 349.632 134.489 333.139 143.917 327.721L149.311 333.614ZM142.117 359.265C143.612 361.241 145.823 362.642 148.836 363.533C157.461 366.084 161.618 363.897 166.174 362.824L168.583 370.44C159.173 375.893 140.939 374.503 133.305 364.354L142.117 359.265ZM157.672 350.247C156.851 350.212 156.23 349.831 155.907 349.274C155.585 348.717 155.567 347.99 155.948 347.263C160.985 337.577 162.386 339.606 173.749 338.973C167.522 348.5 168.578 350.728 157.672 350.247ZM185.434 334.059C190.992 341.81 202.256 346.806 210.564 342.977C200.156 353.965 199.84 354.786 198.145 354.1C185.815 349.128 173.315 360.942 178.621 371.472C178.996 372.217 179.248 373.026 179.29 373.858C179.313 374.386 179.254 374.908 179.02 375.406C178.492 376.514 177.413 377.247 176.422 377.904C176.34 377.957 176.264 378.027 176.194 378.097C174.136 375.641 172.717 372.774 171.538 369.426C166.789 355.917 167.405 346.401 185.434 334.059ZM184.473 372.527C175.449 363.768 190.881 350.834 198.544 358.456C206.166 366.119 193.226 381.557 184.473 372.527ZM179.102 380.583C179.753 379.587 180.491 378.514 181.6 377.986C182.092 377.751 182.614 377.693 183.147 377.716C183.98 377.751 184.789 378.009 185.534 378.385C196.064 383.691 207.878 371.191 202.906 358.86C202.22 357.166 203.041 356.849 214.029 346.442C210.194 354.75 215.195 366.019 222.947 371.572C210.605 389.601 201.083 390.217 187.586 385.467C184.238 384.289 181.377 382.87 178.914 380.812C178.979 380.742 179.049 380.665 179.102 380.583ZM203.112 399.422C203.182 401.046 203.651 402.365 204.401 403.332L199.388 412.016C196.134 408.938 193.596 402.06 197.225 391.694C197.448 391.155 198.632 391.172 203.815 390.938C203.522 393.746 202.994 396.602 203.112 399.422ZM207.444 405.086C208.658 405.25 210.036 405.003 211.472 404.247C213.97 402.94 216.18 401.058 218.467 399.392C220.853 404.001 221.463 405.021 221.106 405.478C213.941 413.804 206.717 415.047 202.426 413.769L207.444 405.086ZM218.027 383.245C217.394 394.608 219.423 396.015 209.737 401.052C209.01 401.433 208.283 401.415 207.726 401.093C207.169 400.77 206.794 400.149 206.753 399.328C206.272 388.422 208.5 389.478 218.027 383.245ZM186.554 388.417L194.17 390.826C193.097 395.376 190.91 399.533 193.461 408.164C194.352 411.177 195.753 413.388 197.729 414.883L192.64 423.701C182.497 416.061 181.101 397.827 186.554 388.417ZM200.772 416.636C203.053 417.598 205.668 417.709 208.728 416.976C217.476 414.871 219.98 410.896 223.386 407.695L229.285 413.089C223.861 422.517 207.374 430.426 195.689 425.454L200.772 416.636ZM225.679 373.149C234.368 377.083 246.622 375.776 251.899 368.306C248.381 383.022 248.516 383.89 246.71 384.148C233.541 386.007 228.628 402.488 238.484 408.955C239.182 409.413 239.803 409.987 240.255 410.691C240.536 411.136 240.747 411.617 240.794 412.162C240.888 413.388 240.325 414.56 239.791 415.622C239.745 415.71 239.715 415.803 239.692 415.903C236.684 414.801 234.016 413.036 231.325 410.726C220.461 401.404 216.239 392.849 225.679 373.149ZM249.231 387.719C259.662 390.545 256.179 410.38 244.077 406.944C231.888 403.878 238.789 384.951 249.231 387.719ZM243.462 416.607C243.532 415.416 243.632 414.121 244.324 413.106C244.634 412.655 245.057 412.344 245.526 412.098C246.264 411.711 247.091 411.529 247.924 411.482C259.697 410.808 263.678 394.08 253.206 385.884C251.77 384.758 252.321 384.072 256.63 369.567C257.463 378.678 267.43 385.936 276.917 386.875C275.246 408.656 267.307 413.951 253.242 416.595C249.753 417.252 246.563 417.445 243.403 416.894C243.432 416.806 243.456 416.706 243.462 416.607ZM259.404 357.283C259.744 356.005 261.468 356.257 264.95 356.286C264.95 356.339 264.956 356.392 264.956 356.439C264.968 356.732 264.974 356.943 264.944 357.125C262.617 371.044 270.555 378.004 278.5 378.004C286.445 378.004 294.383 371.038 292.056 357.125C292.026 356.943 292.032 356.732 292.044 356.439C292.044 356.392 292.044 356.339 292.05 356.286C295.532 356.257 297.256 356.005 297.596 357.283C301.278 371.073 290.133 382.419 278.5 382.395C266.867 382.419 255.727 371.073 259.404 357.283ZM312.917 406.944C300.821 410.38 297.332 390.545 307.763 387.719C318.211 384.951 325.112 403.878 312.917 406.944ZM316.206 412.162C316.247 411.617 316.458 411.136 316.745 410.691C317.191 409.987 317.818 409.413 318.516 408.955C328.378 402.488 323.459 386.007 310.29 384.148C308.484 383.896 308.619 383.022 305.101 368.306C310.378 375.781 322.638 377.083 331.321 373.149C340.761 392.849 336.539 401.404 325.675 410.72C322.984 413.03 320.316 414.795 317.308 415.897C317.285 415.803 317.255 415.71 317.209 415.616C316.675 414.56 316.106 413.388 316.206 412.162ZM345.528 404.247C346.97 404.998 348.348 405.25 349.556 405.086L354.569 413.769C350.277 415.047 343.053 413.81 335.889 405.478C335.531 405.021 336.141 404.001 338.527 399.392C340.82 401.058 343.03 402.945 345.528 404.247ZM338.973 383.245C348.494 389.478 350.728 388.422 350.247 399.328C350.212 400.149 349.831 400.77 349.274 401.093C348.717 401.415 347.99 401.433 347.263 401.052C337.577 396.015 339.612 394.608 338.973 383.245ZM353.185 390.938C358.368 391.178 359.552 391.155 359.775 391.694C363.404 402.06 360.866 408.938 357.612 412.016L352.599 403.332C353.349 402.365 353.818 401.046 353.889 399.422C354.006 396.602 353.478 393.746 353.185 390.938ZM333.614 407.689C337.02 410.89 339.524 414.865 348.272 416.97C351.326 417.709 353.947 417.598 356.228 416.63L361.317 425.448C349.632 430.42 333.139 422.511 327.721 413.083L333.614 407.689ZM359.265 414.883C361.241 413.388 362.642 411.177 363.533 408.164C366.084 399.539 363.897 395.382 362.824 390.826L370.44 388.417C375.893 397.827 374.503 416.061 364.354 423.695L359.265 414.883ZM369.42 385.467C355.917 390.217 346.395 389.595 334.059 371.572C341.81 366.013 346.806 354.75 342.977 346.442C353.965 356.849 354.786 357.166 354.1 358.86C349.128 371.191 360.942 383.691 371.472 378.385C372.217 378.009 373.026 377.757 373.858 377.716C374.386 377.693 374.908 377.751 375.406 377.986C376.514 378.514 377.247 379.593 377.904 380.583C377.957 380.665 378.027 380.742 378.097 380.812C375.629 382.864 372.768 384.289 369.42 385.467ZM358.456 358.456C366.119 350.834 381.557 363.774 372.527 372.527C363.774 381.557 350.834 366.119 358.456 358.456ZM377.986 375.4C377.752 374.908 377.693 374.38 377.716 373.853C377.752 373.02 378.01 372.211 378.385 371.466C383.691 360.936 371.191 349.122 358.86 354.094C357.166 354.78 356.849 353.959 346.442 342.971C354.75 346.806 366.019 341.805 371.572 334.053C389.601 346.395 390.217 355.917 385.467 369.414C384.289 372.762 382.87 375.623 380.812 378.086C380.742 378.015 380.671 377.951 380.583 377.892C379.587 377.247 378.514 376.509 377.986 375.4ZM383.245 338.973C394.608 339.606 396.015 337.577 401.046 347.263C401.427 347.99 401.409 348.717 401.087 349.274C400.764 349.831 400.143 350.206 399.322 350.247C388.423 350.728 389.478 348.5 383.245 338.973ZM405.086 349.556C405.25 348.342 405.003 346.964 404.247 345.528C402.94 343.03 401.058 340.819 399.392 338.533C404.001 336.147 405.021 335.537 405.478 335.894C413.804 343.059 415.047 350.283 413.769 354.574L405.086 349.556ZM412.016 357.612C408.938 360.866 402.06 363.404 391.694 359.775C391.155 359.552 391.172 358.368 390.938 353.185C393.746 353.478 396.607 354.012 399.422 353.888C401.046 353.818 402.365 353.349 403.332 352.599L412.016 357.612ZM390.826 362.824C395.376 363.897 399.533 366.084 408.164 363.533C411.177 362.642 413.388 361.241 414.883 359.265L423.701 364.354C416.067 374.503 397.827 375.899 388.422 370.44L390.826 362.824ZM416.636 356.228C417.598 353.947 417.709 351.332 416.976 348.272C414.871 339.524 410.896 337.02 407.695 333.614L413.089 327.715C422.517 333.139 430.426 349.626 425.454 361.311L416.636 356.228ZM410.72 325.675C401.404 336.539 392.849 340.761 373.143 331.321C377.077 322.632 375.77 310.378 368.3 305.101C383.017 308.619 383.884 308.484 384.142 310.29C386.001 323.459 402.482 328.372 408.949 318.516C409.407 317.818 409.981 317.197 410.685 316.745C411.131 316.464 411.611 316.253 412.157 316.206C413.382 316.112 414.555 316.675 415.616 317.209C415.704 317.255 415.798 317.285 415.897 317.308C414.801 320.316 413.03 322.984 410.72 325.675ZM387.725 307.763C390.551 297.332 410.386 300.815 406.95 312.917C403.878 325.112 384.952 318.211 387.725 307.763ZM413.106 312.676C412.655 312.366 412.344 311.943 412.098 311.474C411.711 310.736 411.529 309.909 411.482 309.076C410.808 297.303 394.08 293.322 385.884 303.794C384.758 305.23 384.072 304.679 369.567 300.37C378.678 299.537 385.937 289.57 386.875 280.083C408.656 281.76 413.957 289.693 416.595 303.758C417.252 307.247 417.445 310.437 416.894 313.597C416.8 313.568 416.706 313.55 416.601 313.544C415.416 313.474 414.121 313.374 413.106 312.676ZM417.164 292.29C416.589 292.366 416.009 291.334 413.212 286.961C415.792 285.811 418.53 284.838 420.91 283.331C422.282 282.458 423.191 281.391 423.648 280.259H433.674C432.648 284.609 427.958 290.25 417.164 292.29ZM433.305 287.312C435.469 285.032 436.682 282.71 436.993 280.253H447.171C445.635 292.859 430.538 303.184 419.661 303.166L417.938 295.362C422.417 294.02 427.113 293.832 433.305 287.312ZM420.189 306.508C420.793 306.35 421.285 306.209 421.807 306.086C424.657 305.394 427.706 305.042 430.45 303.923C443.823 298.446 449.734 289.376 450.121 280.259H459.203C457.127 299.437 438.283 316.956 420.189 313.521V306.508ZM450.121 276.747C449.739 267.63 443.823 258.554 430.45 253.083C427.706 251.957 424.657 251.606 421.807 250.92C421.285 250.791 420.793 250.656 420.189 250.498V243.491C438.283 240.055 457.121 257.58 459.203 276.753H450.121V276.747ZM495.636 250.24C484.25 263.566 488.043 265.314 457.655 244.804C469.879 237.997 480.738 249.266 495.636 250.24ZM425.712 239.053C437.239 229.091 446.016 219.534 458.904 224.043C461.425 224.922 464.462 226.206 465.095 228.505C465.699 230.809 463.705 233.442 461.964 235.464C453.058 245.807 440.675 241.92 425.712 239.053ZM464.878 239.317C472.705 227.76 470.184 237.481 489.808 236.344C497.049 235.928 502.197 234.749 507.603 230.745C490.395 256.765 498.468 244.634 464.878 239.317ZM470.161 227.145C468.584 218.268 495.63 198.697 515.454 215.008C506.448 239.041 473.233 235.623 470.161 227.145ZM482.579 209.35C465.013 218.18 472.055 225.339 459.502 219.247C485.927 197.846 472.875 191.379 500.79 205.304C494.106 204.536 489.064 206.09 482.579 209.35ZM450.502 218.109C466.567 185.153 464.151 188.565 480.679 194.411C468.261 202.695 464.491 217.887 450.502 218.109ZM437.257 224.852C448.215 205.099 430.813 194.065 462.169 190.646C447.922 205.533 455.808 213.988 437.257 224.852ZM418.717 237.986L415.211 231.917C415.651 231.477 416.015 231.114 416.401 230.739C418.524 228.716 420.986 226.887 422.804 224.541C431.646 213.114 432.232 202.297 428.005 194.211L435.867 189.673C443.659 207.315 436.102 231.911 418.717 237.986ZM426.252 191.168C421.362 183.464 411.705 178.562 397.387 180.509C394.45 180.908 391.63 182.127 388.815 182.954C388.299 183.106 387.801 183.235 387.203 183.4L383.697 177.331C397.645 165.312 422.728 171.063 434.114 186.63L426.252 191.168ZM404.341 167.833C423.027 157.197 426.404 168.261 446.421 163.359C427.776 188.805 426.926 168.22 404.341 167.833ZM416.8 159.742C423.988 147.734 439.027 152.067 452.413 145.459C449.212 162.691 453.375 162.304 416.8 159.742ZM420.318 151.375C421.315 137.45 424 147.136 440.423 136.336C446.485 132.349 450.355 128.767 453.034 122.587C451.141 153.732 452.067 139.185 420.318 151.375ZM418.805 138.195C413.001 131.294 426.639 100.823 451.962 105.038C456.177 130.356 425.706 143.999 418.805 138.195ZM420.664 116.571C409.864 133 419.55 135.679 405.625 136.676C417.815 104.927 403.268 105.853 434.413 103.96C428.233 106.645 424.651 110.509 420.664 116.571ZM397.258 140.2C394.69 103.625 394.309 107.788 411.541 104.587C404.933 117.973 409.266 133.012 397.258 140.2ZM407.507 141.138C410.128 140.64 413.405 140.229 415.1 141.906C416.771 143.6 416.36 146.878 415.868 149.499C413.329 162.914 400.665 165.734 386.271 170.741C391.266 156.341 394.092 143.677 407.507 141.138ZM379.675 173.303L373.606 169.797C373.77 169.193 373.899 168.701 374.052 168.185C374.879 165.37 376.098 162.556 376.497 159.613C378.443 145.295 373.542 135.638 365.838 130.748L370.376 122.886C385.937 134.272 391.694 159.355 379.675 173.303ZM362.789 128.995C354.703 124.768 343.886 125.354 332.459 134.196C330.113 136.014 328.284 138.476 326.261 140.599C325.892 140.985 325.528 141.349 325.083 141.789L319.014 138.283C325.083 120.898 349.685 113.341 367.327 121.127L362.789 128.995ZM317.947 131.288C315.086 116.319 311.199 103.942 321.541 95.0359C323.564 93.2946 326.197 91.3011 328.501 91.905C330.799 92.5382 332.078 95.5753 332.963 98.0965C337.466 110.984 327.909 119.761 317.947 131.288ZM312.196 99.3512C291.686 68.9625 293.433 72.7559 306.76 61.3697C307.734 76.2621 319.003 87.1207 312.196 99.3512ZM311.422 114.185C299.795 94.819 281.537 104.37 294.254 75.5116C300.018 95.2939 311.287 92.6907 311.422 114.185ZM313.521 136.811H306.514C306.356 136.207 306.215 135.715 306.092 135.193C305.4 132.343 305.048 129.294 303.929 126.55C298.452 113.177 289.382 107.266 280.265 106.879V97.7975C299.431 99.8789 316.956 118.717 313.521 136.811ZM303.166 137.339L295.362 139.062C294.014 134.583 293.832 129.892 287.312 123.695C285.032 121.532 282.71 120.318 280.253 120.007V109.829C292.865 111.365 303.19 126.462 303.166 137.339ZM292.29 139.836C292.366 140.411 291.334 140.991 286.961 143.788C285.811 141.208 284.838 138.47 283.331 136.09C282.458 134.718 281.391 133.809 280.259 133.352V123.326C284.609 124.352 290.25 129.042 292.29 139.836ZM278.5 157.555C273.37 147.394 270.907 147.195 276.776 137.989C277.216 137.298 277.855 136.952 278.5 136.946C279.139 136.946 279.784 137.298 280.224 137.989C286.093 147.189 283.63 147.394 278.5 157.555ZM276.747 106.879C267.63 107.261 258.554 113.177 253.083 126.55C251.957 129.294 251.606 132.343 250.92 135.193C250.791 135.715 250.656 136.207 250.498 136.811H243.491C240.055 118.717 257.58 99.8789 276.753 97.7975V106.879H276.747ZM245.578 114.185C245.713 92.6907 256.976 95.2939 262.746 75.5116C275.463 104.376 257.205 94.819 245.578 114.185ZM244.804 99.3512C237.997 87.1265 249.272 76.268 250.24 61.3697C263.567 72.7501 265.308 68.9566 244.804 99.3512ZM235.459 95.0359C245.801 103.942 241.92 116.319 239.053 131.288C229.091 119.761 219.534 110.984 224.043 98.0965C224.922 95.5753 226.207 92.5382 228.505 91.905C230.803 91.3011 233.436 93.2946 235.459 95.0359ZM237.986 138.283L231.917 141.789C231.477 141.349 231.114 140.985 230.739 140.599C228.716 138.476 226.887 136.014 224.541 134.196C213.114 125.354 202.297 124.768 194.211 128.995L189.673 121.133C207.315 113.341 231.911 120.898 237.986 138.283ZM191.168 130.748C183.464 135.638 178.562 145.295 180.509 159.613C180.908 162.55 182.127 165.37 182.954 168.185C183.106 168.701 183.235 169.193 183.4 169.797L177.331 173.303C165.312 159.355 171.064 134.272 186.63 122.886L191.168 130.748ZM170.735 170.735C156.341 165.734 143.677 162.908 141.138 149.493C140.64 146.872 140.229 143.595 141.906 141.9C143.6 140.229 146.878 140.64 149.499 141.132C162.908 143.677 165.734 156.341 170.735 170.735ZM159.742 140.2C147.734 133.012 152.067 117.973 145.459 104.587C162.691 107.788 162.304 103.625 159.742 140.2ZM151.375 136.682C137.45 135.685 147.136 133 136.336 116.577C132.349 110.515 128.767 106.645 122.587 103.966C153.732 105.859 139.186 104.933 151.375 136.682ZM138.195 138.195C131.294 143.999 100.823 130.356 105.038 105.038C130.356 100.823 143.999 131.294 138.195 138.195ZM116.577 136.336C133.006 147.136 135.685 137.45 136.682 151.375C104.933 139.185 105.865 153.732 103.966 122.587C106.645 128.767 110.509 132.349 116.577 136.336ZM140.2 159.742C103.625 162.31 107.788 162.691 104.587 145.459C117.973 152.067 133.012 147.734 140.2 159.742ZM152.659 167.833C130.074 168.22 129.218 188.805 110.579 163.359C130.602 168.261 133.979 157.203 152.659 167.833ZM173.303 177.325L169.797 183.394C169.193 183.23 168.701 183.101 168.185 182.948C165.37 182.121 162.556 180.902 159.613 180.503C145.295 178.557 135.638 183.458 130.748 191.162L122.886 186.624C134.272 171.063 159.355 165.306 173.303 177.325ZM128.995 194.211C124.768 202.297 125.354 213.114 134.196 224.541C136.014 226.887 138.476 228.716 140.599 230.739C140.986 231.108 141.349 231.472 141.789 231.917L138.283 237.986C120.898 231.917 113.341 207.315 121.127 189.673L128.995 194.211ZM131.288 239.053C116.319 241.914 103.942 245.801 95.0359 235.459C93.2946 233.436 91.3011 230.803 91.905 228.499C92.5382 226.201 95.5753 224.922 98.0965 224.037C110.984 219.534 119.761 229.091 131.288 239.053ZM119.743 224.852C101.192 213.988 109.084 205.533 94.8307 190.646C126.187 194.065 108.779 205.099 119.743 224.852ZM106.498 218.109C92.5089 217.887 88.7389 202.701 76.3207 194.411C92.849 188.559 90.4333 185.153 106.498 218.109ZM97.4985 219.247C84.9454 225.345 91.9871 218.18 74.4211 209.35C67.9364 206.09 62.9 204.536 56.2101 205.304C84.1246 191.373 71.0673 197.846 97.4985 219.247ZM86.8392 227.145C83.7669 235.623 50.558 239.047 41.5463 215.008C61.3638 198.697 88.4164 218.268 86.8392 227.145ZM67.1859 236.344C86.8099 237.481 84.2946 227.754 92.1161 239.317C58.526 244.634 66.6055 256.765 49.3854 230.745C54.7971 234.755 59.9449 235.928 67.1859 236.344ZM99.3512 244.804C68.9625 265.314 72.7559 263.566 61.3697 250.24C76.2621 249.266 87.1207 237.997 99.3512 244.804ZM114.185 245.578C94.819 257.205 104.37 275.463 75.5116 262.746C95.2939 256.982 92.6907 245.713 114.185 245.578ZM114.185 311.422C92.6907 311.287 95.2939 300.024 75.5116 294.254C104.376 281.537 94.819 299.795 114.185 311.422ZM131.288 317.947C119.761 327.909 110.984 337.466 98.0965 332.957C95.5753 332.078 92.5382 330.793 91.905 328.495C91.3011 326.191 93.2946 323.558 95.0359 321.536C103.942 311.193 116.325 315.08 131.288 317.947ZM99.3512 312.196C87.1265 319.003 76.268 307.728 61.3697 306.76C72.7501 293.433 68.9566 291.692 99.3512 312.196ZM92.1219 317.683C84.2946 329.24 86.8158 319.519 67.1918 320.656C59.9508 321.072 54.8029 322.251 49.3971 326.255C66.6055 300.235 58.5319 312.366 92.1219 317.683ZM86.8392 329.855C88.4164 338.732 61.3697 358.303 41.5463 341.992C50.5522 317.959 83.7669 321.377 86.8392 329.855ZM74.4211 347.65C91.9871 338.82 84.9454 331.661 97.4985 337.753C71.0732 359.154 84.1246 365.621 56.2101 351.696C62.8941 352.464 67.9364 350.91 74.4211 347.65ZM106.498 338.891C90.4333 371.847 92.849 368.435 76.3207 362.589C88.7389 354.305 92.5089 339.113 106.498 338.891ZM119.743 332.148C108.785 351.901 126.187 362.935 94.8307 366.354C109.078 351.467 101.192 343.012 119.743 332.148ZM138.283 319.014L141.789 325.083C141.349 325.523 140.986 325.886 140.599 326.261C138.476 328.284 136.014 330.113 134.196 332.459C125.354 343.886 124.768 354.703 128.995 362.789L121.133 367.327C113.341 349.685 120.898 325.089 138.283 319.014ZM130.748 365.832C135.638 373.536 145.295 378.438 159.613 376.491C162.55 376.092 165.37 374.873 168.185 374.046C168.701 373.894 169.199 373.765 169.797 373.6L173.303 379.669C159.355 391.688 134.272 385.936 122.886 370.37L130.748 365.832ZM152.659 389.167C133.973 399.803 130.596 388.739 110.579 393.641C129.224 368.195 130.074 388.78 152.659 389.167ZM140.2 397.258C133.012 409.266 117.973 404.933 104.587 411.541C107.788 394.309 103.625 394.696 140.2 397.258ZM136.682 405.625C135.685 419.55 133 409.864 116.577 420.664C110.515 424.651 106.645 428.233 103.966 434.413C105.859 403.268 104.933 417.814 136.682 405.625ZM138.195 418.805C143.999 425.706 130.361 456.177 105.038 451.961C100.823 426.644 131.294 413.001 138.195 418.805ZM136.336 440.423C147.136 423.994 137.45 421.315 151.375 420.318C139.186 452.067 153.732 451.141 122.587 453.034C128.767 450.355 132.349 446.491 136.336 440.423ZM159.742 416.8C162.31 453.375 162.691 449.212 145.459 452.413C152.067 439.027 147.734 423.988 159.742 416.8ZM149.493 415.862C146.872 416.36 143.595 416.771 141.9 415.094C140.229 413.4 140.64 410.122 141.132 407.501C143.671 394.086 156.335 391.266 170.729 386.259C165.734 400.659 162.908 413.323 149.493 415.862ZM177.325 383.697L183.394 387.203C183.23 387.807 183.101 388.299 182.948 388.815C182.121 391.63 180.902 394.444 180.503 397.387C178.557 411.705 183.458 421.362 191.162 426.252L186.624 434.114C171.063 422.728 165.306 397.645 177.325 383.697ZM194.211 428.005C202.297 432.232 213.114 431.646 224.541 422.804C226.887 420.986 228.716 418.524 230.739 416.401C231.108 416.014 231.472 415.651 231.917 415.211L237.986 418.717C231.917 436.102 207.315 443.659 189.673 435.873L194.211 428.005ZM239.053 425.712C241.914 440.681 245.801 453.058 235.459 461.964C233.436 463.705 230.803 465.699 228.499 465.095C226.201 464.462 224.922 461.425 224.037 458.903C219.534 446.016 229.091 437.239 239.053 425.712ZM244.804 457.649C265.314 488.038 263.567 484.244 250.24 495.63C249.266 480.738 237.997 469.879 244.804 457.649ZM245.578 442.815C257.205 462.181 275.463 452.63 262.746 481.488C256.982 461.706 245.713 464.309 245.578 442.815ZM243.479 420.189H250.486C250.644 420.793 250.785 421.285 250.908 421.807C251.6 424.657 251.952 427.706 253.072 430.45C258.548 443.823 267.618 449.734 276.735 450.12V459.203C257.569 457.121 240.044 438.283 243.479 420.189ZM253.834 419.661L261.638 417.938C262.986 422.417 263.168 427.108 269.688 433.305C271.968 435.468 274.29 436.682 276.747 436.993V447.171C264.135 445.635 253.81 430.538 253.834 419.661ZM264.71 417.164C264.634 416.589 265.666 416.009 270.039 413.212C271.189 415.792 272.162 418.53 273.669 420.91C274.542 422.282 275.609 423.191 276.741 423.648V433.674C272.391 432.648 266.75 427.958 264.71 417.164ZM278.5 399.445C283.63 409.606 286.093 409.805 280.224 419.011C279.784 419.702 279.145 420.048 278.5 420.054C277.861 420.054 277.216 419.702 276.776 419.011C270.907 409.811 273.37 409.606 278.5 399.445ZM280.253 450.12C289.37 449.739 298.446 443.823 303.917 430.45C305.043 427.706 305.394 424.657 306.08 421.807C306.209 421.285 306.344 420.793 306.502 420.189H313.509C316.945 438.283 299.42 457.121 280.247 459.203V450.12H280.253ZM311.422 442.815C311.287 464.309 300.024 461.706 294.254 481.488C281.537 452.624 299.795 462.181 311.422 442.815ZM312.196 457.649C319.003 469.873 307.728 480.732 306.76 495.63C293.433 484.25 291.692 488.043 312.196 457.649ZM321.541 461.964C311.193 453.058 315.08 440.681 317.947 425.712C327.909 437.239 337.466 446.022 332.957 458.903C332.078 461.425 330.794 464.462 328.501 465.095C326.197 465.699 323.564 463.705 321.541 461.964ZM319.014 418.717L325.083 415.211C325.523 415.651 325.886 416.014 326.261 416.401C328.284 418.524 330.113 420.986 332.459 422.804C343.886 431.646 354.703 432.232 362.789 428.005L367.327 435.867C349.685 443.659 325.089 436.102 319.014 418.717ZM365.832 426.252C373.536 421.362 378.438 411.705 376.491 397.387C376.092 394.45 374.873 391.63 374.046 388.815C373.894 388.299 373.765 387.807 373.6 387.203L379.669 383.697C391.688 397.645 385.937 422.728 370.37 434.114L365.832 426.252ZM386.265 386.265C400.659 391.266 413.323 394.092 415.862 407.507C416.36 410.128 416.771 413.405 415.094 415.1C413.4 416.771 410.122 416.36 407.501 415.868C394.092 413.323 391.266 400.659 386.265 386.265ZM397.258 416.8C409.266 423.988 404.933 439.027 411.541 452.413C394.309 449.212 394.696 453.375 397.258 416.8ZM405.625 420.318C419.55 421.315 409.864 424 420.664 440.423C424.651 446.485 428.233 450.355 434.413 453.034C403.268 451.141 417.815 452.067 405.625 420.318ZM418.805 418.805C425.706 413.001 456.177 426.639 451.962 451.961C426.644 456.177 413.001 425.706 418.805 418.805ZM440.423 420.664C423.994 409.864 421.315 419.55 420.318 405.625C452.067 417.814 451.135 403.268 453.034 434.413C450.355 428.233 446.491 424.651 440.423 420.664ZM416.8 397.258C453.375 394.69 449.212 394.309 452.413 411.541C439.027 404.933 423.988 409.266 416.8 397.258ZM404.341 389.167C426.926 388.78 427.782 368.195 446.421 393.641C426.398 388.739 423.021 399.797 404.341 389.167ZM383.697 379.675L387.203 373.606C387.807 373.77 388.299 373.899 388.815 374.052C391.63 374.879 394.444 376.098 397.387 376.497C411.705 378.443 421.362 373.542 426.252 365.838L434.114 370.376C422.728 385.936 397.645 391.694 383.697 379.675ZM428.005 362.789C432.232 354.703 431.646 343.886 422.804 332.459C420.986 330.113 418.524 328.284 416.401 326.261C416.015 325.892 415.651 325.528 415.211 325.083L418.717 319.014C436.102 325.083 443.659 349.685 435.873 367.327L428.005 362.789ZM425.712 317.947C440.681 315.086 453.058 311.199 461.964 321.541C463.705 323.564 465.699 326.197 465.095 328.501C464.462 330.799 461.425 332.078 458.904 332.963C446.016 337.466 437.239 327.909 425.712 317.947ZM437.257 332.148C455.808 343.012 447.916 351.467 462.169 366.354C430.813 362.935 448.221 351.901 437.257 332.148ZM450.502 338.891C464.491 339.113 468.261 354.299 480.679 362.589C464.151 368.441 466.567 371.847 450.502 338.891ZM459.502 337.753C472.055 331.655 465.013 338.82 482.579 347.65C489.064 350.91 494.1 352.464 500.79 351.696C472.875 365.621 485.933 359.154 459.502 337.753ZM470.161 329.855C473.233 321.377 506.442 317.953 515.454 341.992C495.636 358.303 468.584 338.732 470.161 329.855ZM489.814 320.656C470.19 319.519 472.705 329.246 464.884 317.683C498.474 312.366 490.395 300.235 507.615 326.255C502.203 322.245 497.055 321.072 489.814 320.656ZM457.649 312.196C488.038 291.686 484.244 293.433 495.63 306.76C480.738 307.734 469.879 319.003 457.649 312.196ZM442.815 311.422C462.181 299.795 452.63 281.537 481.488 294.254C461.706 300.018 464.309 311.287 442.815 311.422ZM442.815 245.578C464.309 245.713 461.706 256.976 481.488 262.746C452.624 275.463 462.181 257.205 442.815 245.578ZM524.864 210.71C523.117 211.103 521.375 211.537 519.652 212.018C518.391 212.369 517.048 212.17 515.929 211.496C481.189 190.623 467.692 178.891 440.2 192.335L438.957 188.184C465.429 170.712 472.401 179.272 524.864 210.71ZM489.046 154.91C487.381 155.872 485.44 156.224 483.546 155.901C477.513 154.887 464.245 152.653 464.01 152.53L464.38 141.548L497.946 149.323C498.116 149.364 498.28 149.417 498.433 149.487L489.046 154.91ZM500.198 152.53C500.18 152.7 500.145 152.864 500.092 153.034L490.043 185.997L480.345 180.826C480.351 180.562 485.059 167.956 487.193 162.222C487.862 160.422 489.14 158.915 490.805 157.953L500.198 152.53ZM484.25 161.735C476.857 184.174 479.008 179.981 468.888 176.68C470.196 173.362 471.21 171.093 471.732 169.516C471.873 169.082 472.166 168.712 472.565 168.484C473.538 167.927 476.294 166.332 484.25 161.735ZM501.617 193.273C490.688 186.648 491.309 190.471 503.575 152.477C504.062 150.976 505.082 149.704 506.448 148.918L515.788 143.524C514.052 152.143 504.73 183.558 501.617 193.273ZM514.035 140.487L504.695 145.881C503.329 146.673 501.716 146.925 500.174 146.591C461.137 138.218 464.139 140.669 463.864 127.893C473.837 130.051 505.703 137.685 514.035 140.487ZM482.497 158.692C474.541 163.283 471.779 164.878 470.806 165.441C470.413 165.669 469.944 165.74 469.498 165.646C467.868 165.306 465.4 165.054 461.87 164.526C464.075 154.113 459.367 153.879 482.497 158.692ZM469.088 168.46C464.597 178.328 468.759 176.03 453.879 177.243C462.375 164.96 458.3 167.417 469.088 168.46ZM460.387 99.0405C461.384 160.193 465.306 170.506 436.94 184.701L433.967 181.553C459.355 164.467 455.943 146.913 455.239 106.393C455.216 105.085 455.72 103.819 456.652 102.904C457.93 101.644 459.173 100.36 460.387 99.0405ZM457.96 96.6131C456.64 97.8268 455.356 99.0698 454.096 100.354C453.181 101.286 451.915 101.784 450.607 101.767C410.087 101.063 392.533 97.6509 375.447 123.038L372.299 120.066C386.493 91.6939 396.807 95.6164 457.96 96.6131ZM401.093 73.4536C400.776 71.5598 401.122 69.6133 402.084 67.954L407.507 58.5612C407.572 58.7195 407.63 58.8778 407.671 59.0479L415.446 92.6144L404.464 92.9838C404.341 92.7551 402.113 79.481 401.093 73.4536ZM392.474 95.1297C391.946 91.6001 391.694 89.1317 391.354 87.5018C391.26 87.0562 391.331 86.593 391.559 86.1943C392.128 85.221 393.717 82.4594 398.308 74.5031C403.121 97.6333 402.887 92.9252 392.474 95.1297ZM399.047 66.195C398.085 67.8602 396.578 69.1325 394.778 69.8068C389.044 71.9409 376.438 76.6491 376.174 76.6549L371.003 66.9573L403.966 56.9078C404.136 56.855 404.3 56.8257 404.47 56.8023L399.047 66.195ZM395.265 72.7501C390.674 80.7064 389.079 83.4621 388.516 84.4412C388.288 84.8399 387.918 85.1272 387.484 85.2738C385.901 85.7956 383.638 86.8099 380.32 88.1174C377.019 77.9917 372.827 80.1435 395.265 72.7501ZM388.54 87.9122C389.583 98.7004 392.04 94.6314 379.757 103.121C380.97 88.2405 378.672 92.4034 388.54 87.9122ZM416.513 42.9652C419.315 51.3026 426.949 83.163 429.113 93.1363C416.337 92.8666 418.782 95.8626 410.415 56.8257C410.087 55.2837 410.339 53.6713 411.125 52.3052L416.513 42.9652ZM413.476 41.2063L408.082 50.5463C407.29 51.9124 406.024 52.9384 404.523 53.4192C366.529 65.6908 370.352 66.3123 363.727 55.3775C373.442 52.27 404.857 42.9535 413.476 41.2063ZM344.982 37.3542C345.463 35.6245 345.891 33.889 346.29 32.1418C377.728 84.5995 386.282 91.5767 368.816 118.049L364.665 116.812C378.109 89.3193 366.377 75.8223 345.504 41.0831C344.836 39.9574 344.636 38.6089 344.982 37.3542ZM329.855 86.8392C321.377 83.7669 317.953 50.558 341.992 41.5463C358.303 61.3638 338.732 88.4164 329.855 86.8392ZM342.971 31.2506C342.438 32.9627 341.945 34.6806 341.494 36.4161C341.165 37.6825 340.321 38.7496 339.178 39.3828C303.735 59.0361 286.826 64.8524 284.721 95.3818L280.505 94.3792C278.617 62.7241 289.517 60.9651 342.971 31.2506ZM280.253 5.51137C286.849 11.3276 309.387 35.1086 316.247 42.6603C305.043 48.8108 308.666 50.1886 281.895 20.568C280.839 19.3953 280.247 17.8768 280.247 16.2996V5.51137H280.253ZM280.253 23.5171C280.388 23.6168 280.517 23.7282 280.64 23.8572L304.157 49.0394L294.829 54.8557C294.606 54.7208 286.04 44.3372 282.141 39.6232C280.916 38.1398 280.247 36.2812 280.247 34.364V23.5171H280.253ZM285.518 62.7065C283.296 59.9156 281.842 57.9045 280.734 56.6616C280.429 56.3215 280.259 55.8876 280.259 55.4303C280.259 54.2987 280.259 51.115 280.259 41.9333C295.99 59.558 293.433 55.5945 285.518 62.7065ZM278.5 75.9865C272.109 62.4895 272.203 67.2446 278.5 58.4264C284.797 67.2504 284.891 62.4954 278.5 75.9865ZM276.747 41.9333C276.747 51.1209 276.741 54.3046 276.747 55.4303C276.747 55.8876 276.577 56.3215 276.272 56.6616C275.164 57.9045 273.71 59.9156 271.488 62.7065C263.567 55.5945 261.01 59.558 276.747 41.9333ZM262.165 54.8557L252.837 49.0394L276.354 23.8572C276.471 23.7282 276.606 23.6168 276.741 23.5171V34.364C276.741 36.2871 276.073 38.1457 274.847 39.6232C270.96 44.3431 262.388 54.7208 262.165 54.8557ZM276.747 5.51137V16.2937C276.747 17.8709 276.161 19.3953 275.099 20.5621C248.328 50.1828 251.952 48.8108 240.747 42.6545C247.607 35.1086 270.151 11.3335 276.747 5.51137ZM276.489 94.3851L272.273 95.3877C270.168 64.8583 253.259 59.0361 217.816 39.3887C216.673 38.7555 215.829 37.6884 215.5 36.4219C215.049 34.6864 214.556 32.9685 214.023 31.2565C267.483 60.9651 278.383 62.7241 276.489 94.3851ZM215.008 41.5463C239.041 50.558 235.623 83.7669 227.145 86.8392C218.268 88.4164 198.697 61.3638 215.008 41.5463ZM210.71 32.136C211.103 33.8832 211.537 35.6245 212.018 37.3483C212.369 38.6089 212.17 39.9516 211.496 41.0714C190.623 75.8106 178.891 89.3076 192.335 116.8L188.184 118.037C170.718 91.5708 179.272 84.5995 210.71 32.136ZM176.68 88.1115C173.362 86.804 171.099 85.7897 169.516 85.2679C169.082 85.1272 168.712 84.834 168.484 84.4353C167.921 83.4562 166.326 80.7005 161.735 72.7442C184.179 80.1435 179.981 77.9917 176.68 88.1115ZM177.243 103.121C164.96 94.6314 167.417 98.7004 168.46 87.9122C178.328 92.4034 176.03 88.2405 177.243 103.121ZM154.91 67.954C155.872 69.6191 156.224 71.5598 155.901 73.4536C154.887 79.4868 152.653 92.7552 152.53 92.9897L141.548 92.6203L149.323 59.0537C149.364 58.8837 149.417 58.7195 149.487 58.5671L154.91 67.954ZM152.53 56.8023C152.7 56.8199 152.864 56.855 153.034 56.9078L185.997 66.9573L180.826 76.6549C180.562 76.6491 167.956 71.9409 162.222 69.8068C160.422 69.1384 158.915 67.8602 157.953 66.195L152.53 56.8023ZM158.698 74.5031C163.289 82.4594 164.878 85.221 165.447 86.1943C165.675 86.5871 165.746 87.0562 165.652 87.5018C165.312 89.1317 165.06 91.6001 164.532 95.1297C154.113 92.9252 153.879 97.6333 158.698 74.5031ZM193.273 55.3834C186.648 66.3123 190.471 65.6908 152.477 53.4251C150.976 52.9384 149.704 51.9183 148.918 50.5521L143.524 41.2121C152.143 42.9535 183.558 52.2701 193.273 55.3834ZM140.487 42.9652L145.881 52.3052C146.673 53.6713 146.925 55.2837 146.591 56.8257C138.218 95.8626 140.669 92.8607 127.893 93.1363C130.051 83.163 137.685 51.2968 140.487 42.9652ZM184.701 120.054L181.553 123.027C164.467 97.6392 146.913 101.052 106.393 101.755C105.085 101.779 103.819 101.274 102.904 100.342C101.65 99.0639 100.36 97.8209 99.0405 96.6014C160.193 95.6164 170.507 91.6939 184.701 120.054ZM96.6131 99.0405C97.8327 100.36 99.0756 101.644 100.354 102.904C101.286 103.819 101.784 105.085 101.767 106.393C101.063 146.913 97.6509 164.467 123.038 181.553L120.066 184.701C91.6939 170.506 95.6164 160.193 96.6131 99.0405ZM103.121 177.243C88.2405 176.03 92.4034 178.328 87.9122 168.46C98.7004 167.417 94.6255 164.96 103.121 177.243ZM66.1951 157.953C67.8602 158.915 69.1325 160.422 69.8068 162.222C71.9409 167.956 76.6491 180.562 76.6549 180.826L66.9573 185.997L56.9078 153.034C56.855 152.864 56.8257 152.7 56.8023 152.53L66.1951 157.953ZM58.5612 149.487C58.7195 149.423 58.8778 149.364 59.0479 149.323L92.6144 141.548L92.9838 152.53C92.7552 152.653 79.481 154.881 73.4478 155.901C71.554 156.218 69.6074 155.872 67.9481 154.91L58.5612 149.487ZM72.7501 161.735C80.7064 166.326 83.4621 167.921 84.4412 168.484C84.8399 168.712 85.1272 169.082 85.2738 169.516C85.7956 171.099 86.8099 173.362 88.1174 176.68C77.9917 179.981 80.1435 184.174 72.7501 161.735ZM95.1297 164.526C91.6001 165.054 89.1317 165.306 87.5018 165.646C87.0562 165.74 86.593 165.669 86.1943 165.441C85.2151 164.872 82.4595 163.283 74.5032 158.692C97.6333 153.879 92.9252 154.113 95.1297 164.526ZM93.1304 127.887C92.8607 140.663 95.8568 138.218 56.8199 146.585C55.2779 146.913 53.6655 146.661 52.2994 145.875L42.9594 140.481C51.2968 137.685 83.163 130.051 93.1304 127.887ZM41.2063 143.524L50.5463 148.918C51.9124 149.71 52.9385 150.976 53.4192 152.477C65.6908 190.471 66.3123 186.648 55.3775 193.273C52.2701 183.558 42.9476 152.143 41.2063 143.524ZM118.043 188.184L116.8 192.335C89.3076 178.891 75.8106 190.623 41.0714 211.496C39.9516 212.17 38.603 212.369 37.3483 212.018C35.6187 211.537 33.8832 211.109 32.136 210.71C84.5995 179.272 91.5708 170.712 118.043 188.184ZM31.2506 214.029C32.9627 214.562 34.6806 215.055 36.4161 215.506C37.6825 215.835 38.7496 216.679 39.3828 217.822C59.0361 253.265 64.8524 270.174 95.3819 272.279L94.3793 276.495C62.7241 278.383 60.9651 267.483 31.2506 214.029ZM39.6291 274.853C38.1457 276.078 36.2871 276.747 34.3698 276.747H23.523C23.6227 276.612 23.7341 276.483 23.8631 276.36L49.0453 252.843L54.8616 262.171C54.7209 262.388 44.3431 270.96 39.6291 274.853ZM62.7123 271.482C59.9215 273.704 57.9104 275.158 56.6674 276.266C56.3274 276.571 55.8935 276.741 55.4362 276.741C54.3104 276.741 51.1267 276.741 41.9392 276.741C59.558 261.01 55.5945 263.567 62.7123 271.482ZM34.364 280.253C36.2871 280.253 38.1457 280.921 39.6232 282.147C44.3372 286.04 54.7209 294.612 54.8557 294.835L49.0395 304.163L23.8631 280.64C23.7341 280.523 23.6227 280.388 23.523 280.253H34.364ZM41.9333 280.253C51.1209 280.253 54.3046 280.259 55.4303 280.253C55.8876 280.253 56.3215 280.423 56.6616 280.728C57.9045 281.836 59.9156 283.29 62.7065 285.512C55.5945 293.433 59.558 295.99 41.9333 280.253ZM58.4264 278.5C67.2504 272.203 62.4954 272.109 75.9865 278.5C62.4954 284.891 67.2504 284.797 58.4264 278.5ZM42.6603 240.747C48.8167 251.952 50.1886 248.328 20.568 275.099C19.3953 276.155 17.8768 276.747 16.2996 276.747H5.51137C11.3335 270.151 35.1086 247.607 42.6603 240.747ZM5.51137 280.253H16.2937C17.8709 280.253 19.3953 280.839 20.5621 281.901C50.1828 308.672 48.8108 305.048 42.6545 316.253C35.1086 309.393 11.3335 286.849 5.51137 280.253ZM94.3851 280.511L95.3877 284.727C64.8583 286.832 59.0361 303.741 39.3887 339.184C38.7555 340.327 37.6884 341.171 36.4219 341.5C34.6864 341.951 32.9685 342.444 31.2565 342.977C60.9651 289.517 62.7241 278.617 94.3851 280.511ZM32.136 346.29C33.8832 345.897 35.6245 345.463 37.3483 344.982C38.6089 344.631 39.9516 344.83 41.0714 345.504C75.8106 366.377 89.3076 378.109 116.8 364.665L118.043 368.816C91.5708 386.288 84.5995 377.728 32.136 346.29ZM67.954 402.089C69.6191 401.128 71.5598 400.776 73.4536 401.099C79.4868 402.113 92.7552 404.347 92.9897 404.47L92.6203 415.452L59.0537 407.677C58.8837 407.636 58.7195 407.583 58.5671 407.513L67.954 402.089ZM56.8023 404.47C56.8199 404.3 56.855 404.136 56.9078 403.966L66.9573 371.003L76.6549 376.174C76.6491 376.438 71.9409 389.044 69.8068 394.778C69.1384 396.578 67.8602 398.085 66.1951 399.046L56.8023 404.47ZM72.7501 395.265C80.1435 372.826 77.9917 377.019 88.1115 380.32C86.8041 383.638 85.7897 385.907 85.2679 387.484C85.1272 387.918 84.834 388.288 84.4353 388.516C83.4621 389.073 80.7064 390.668 72.7501 395.265ZM55.3834 363.727C66.3123 370.352 65.6908 366.529 53.4251 404.523C52.9385 406.024 51.9183 407.296 50.5522 408.082L41.2121 413.476C42.9476 404.857 52.2701 373.442 55.3834 363.727ZM42.9652 416.513L52.3052 411.119C53.6713 410.327 55.2837 410.075 56.8257 410.409C95.8626 418.782 92.8607 416.331 93.1363 429.107C83.163 426.949 51.2968 419.315 42.9652 416.513ZM74.5032 398.308C82.4595 393.717 85.221 392.122 86.1943 391.559C86.5871 391.331 87.0562 391.26 87.5018 391.354C89.1317 391.694 91.6001 391.946 95.1297 392.474C92.9252 402.887 97.6333 403.121 74.5032 398.308ZM87.9122 388.54C92.4034 378.672 88.2405 380.97 103.121 379.757C94.6255 392.04 98.7004 389.583 87.9122 388.54ZM96.6131 457.96C95.6164 396.807 91.6939 386.493 120.06 372.299L123.033 375.447C97.645 392.533 101.057 410.087 101.761 450.607C101.784 451.915 101.28 453.181 100.348 454.096C99.0698 455.356 97.8268 456.64 96.6131 457.96ZM99.0405 460.387C100.36 459.173 101.644 457.924 102.904 456.646C103.819 455.714 105.085 455.216 106.393 455.233C146.913 455.937 164.467 459.349 181.553 433.962L184.701 436.934C170.507 465.306 160.193 461.384 99.0405 460.387ZM155.907 483.546C156.224 485.44 155.878 487.387 154.916 489.046L149.493 498.439C149.428 498.28 149.37 498.122 149.329 497.952L141.554 464.386L152.536 464.016C152.659 464.245 154.887 477.519 155.907 483.546ZM164.526 461.87C165.054 465.4 165.306 467.868 165.646 469.498C165.74 469.944 165.669 470.407 165.441 470.806C164.872 471.779 163.283 474.541 158.692 482.497C153.879 459.367 154.113 464.075 164.526 461.87ZM157.953 490.805C158.915 489.14 160.422 487.867 162.222 487.193C167.956 485.059 180.562 480.351 180.826 480.345L185.997 490.043L153.034 500.092C152.864 500.145 152.7 500.174 152.53 500.198L157.953 490.805ZM161.735 484.25C166.326 476.294 167.921 473.538 168.484 472.559C168.712 472.16 169.082 471.873 169.516 471.726C171.099 471.204 173.362 470.19 176.68 468.883C179.981 479.008 184.179 476.856 161.735 484.25ZM168.46 469.088C167.417 458.3 164.96 462.369 177.243 453.879C176.03 468.759 178.328 464.597 168.46 469.088ZM140.487 514.035C137.685 505.697 130.051 473.837 127.887 463.864C140.663 464.133 138.218 461.137 146.585 500.174C146.913 501.716 146.661 503.329 145.875 504.695L140.487 514.035ZM143.524 515.794L148.918 506.454C149.71 505.088 150.976 504.062 152.477 503.581C190.471 491.309 186.648 490.688 193.273 501.622C183.558 504.73 152.143 514.046 143.524 515.794ZM212.018 519.646C211.537 521.375 211.109 523.111 210.71 524.858C179.272 472.4 170.718 465.423 188.184 438.951L192.335 440.188C178.891 467.681 190.623 481.178 211.496 515.917C212.164 517.043 212.364 518.391 212.018 519.646ZM227.145 470.161C235.623 473.233 239.047 506.442 215.008 515.454C198.697 495.636 218.268 468.584 227.145 470.161ZM214.029 525.749C214.562 524.037 215.055 522.319 215.506 520.584C215.835 519.317 216.679 518.25 217.822 517.617C253.265 497.964 270.174 492.148 272.279 461.618L276.495 462.621C278.383 494.276 267.483 496.035 214.029 525.749ZM276.747 551.489C270.151 545.672 247.613 521.891 240.753 514.34C251.957 508.189 248.334 506.811 275.105 536.432C276.161 537.605 276.753 539.123 276.753 540.7V551.489H276.747ZM276.747 533.483C276.612 533.383 276.483 533.272 276.36 533.143L252.843 507.961L262.171 502.144C262.394 502.279 270.96 512.663 274.859 517.377C276.084 518.86 276.753 520.719 276.753 522.636V533.483H276.747ZM271.482 494.293C273.704 497.084 275.158 499.095 276.266 500.338C276.571 500.678 276.741 501.112 276.741 501.57C276.741 502.701 276.741 505.885 276.741 515.067C261.01 497.442 263.567 501.405 271.482 494.293ZM278.5 481.013C284.891 494.51 284.797 489.755 278.5 498.574C272.203 489.75 272.109 494.505 278.5 481.013ZM280.253 515.067C280.253 505.879 280.259 502.695 280.253 501.57C280.253 501.112 280.423 500.678 280.728 500.338C281.836 499.095 283.29 497.084 285.512 494.293C293.433 501.405 295.99 497.442 280.253 515.067ZM294.835 502.144L304.163 507.961L280.646 533.143C280.529 533.272 280.394 533.383 280.259 533.483V522.636C280.259 520.713 280.927 518.854 282.153 517.377C286.04 512.657 294.612 502.279 294.835 502.144ZM280.253 551.489V540.706C280.253 539.129 280.839 537.605 281.901 536.438C308.672 506.817 305.048 508.189 316.253 514.346C309.393 521.891 286.849 545.666 280.253 551.489ZM280.511 462.615L284.727 461.612C286.832 492.142 303.741 497.964 339.184 517.611C340.327 518.245 341.171 519.312 341.5 520.578C341.951 522.314 342.444 524.031 342.977 525.743C289.517 496.035 278.617 494.276 280.511 462.615ZM341.992 515.454C317.959 506.442 321.377 473.233 329.855 470.161C338.732 468.584 358.303 495.636 341.992 515.454ZM346.29 524.864C345.897 523.117 345.463 521.375 344.982 519.652C344.631 518.391 344.83 517.048 345.504 515.929C366.377 481.189 378.109 467.692 364.665 440.2L368.816 438.963C386.288 465.429 377.728 472.4 346.29 524.864ZM380.32 468.888C383.638 470.196 385.901 471.21 387.484 471.732C387.918 471.873 388.288 472.166 388.516 472.565C389.079 473.544 390.674 476.299 395.265 484.256C372.827 476.856 377.019 479.008 380.32 468.888ZM379.757 453.879C392.04 462.369 389.583 458.3 388.54 469.088C378.672 464.597 380.97 468.759 379.757 453.879ZM402.09 489.046C401.128 487.381 400.776 485.44 401.099 483.546C402.113 477.513 404.347 464.245 404.47 464.01L415.452 464.38L407.677 497.946C407.636 498.116 407.583 498.28 407.513 498.433L402.09 489.046ZM404.47 500.198C404.3 500.18 404.136 500.145 403.966 500.092L371.003 490.043L376.174 480.345C376.438 480.351 389.044 485.059 394.778 487.193C396.578 487.862 398.085 489.14 399.047 490.805L404.47 500.198ZM398.308 482.497C393.717 474.541 392.122 471.779 391.559 470.806C391.331 470.413 391.26 469.944 391.354 469.498C391.694 467.868 391.946 465.4 392.474 461.87C402.887 464.075 403.121 459.367 398.308 482.497ZM363.727 501.617C370.352 490.688 366.529 491.309 404.523 503.575C406.024 504.062 407.296 505.082 408.082 506.448L413.476 515.788C404.857 514.047 373.442 504.73 363.727 501.617ZM416.513 514.035L411.119 504.695C410.327 503.329 410.075 501.716 410.409 500.174C418.782 461.137 416.331 464.139 429.107 463.864C426.949 473.837 419.315 505.703 416.513 514.035ZM372.299 436.946L375.447 433.973C392.533 459.361 410.087 455.948 450.607 455.245C451.915 455.221 453.181 455.726 454.096 456.658C455.35 457.936 456.64 459.179 457.96 460.399C396.807 461.384 386.493 465.306 372.299 436.946ZM460.387 457.96C459.167 456.64 457.924 455.356 456.646 454.096C455.714 453.181 455.216 451.915 455.233 450.607C455.937 410.087 459.349 392.533 433.962 375.447L436.934 372.299C465.306 386.493 461.384 396.807 460.387 457.96ZM453.879 379.757C468.759 380.97 464.597 378.672 469.088 388.54C458.3 389.583 462.375 392.04 453.879 379.757ZM490.805 399.046C489.14 398.085 487.868 396.578 487.193 394.778C485.059 389.044 480.351 376.438 480.345 376.174L490.043 371.003L500.092 403.966C500.145 404.136 500.174 404.3 500.198 404.47L490.805 399.046ZM498.439 407.513C498.28 407.577 498.122 407.636 497.952 407.677L464.386 415.452L464.016 404.47C464.245 404.347 477.519 402.119 483.552 401.099C485.446 400.782 487.393 401.128 489.052 402.089L498.439 407.513ZM484.25 395.265C476.294 390.674 473.538 389.079 472.559 388.516C472.16 388.288 471.873 387.918 471.726 387.484C471.204 385.901 470.19 383.638 468.883 380.32C479.008 377.019 476.857 372.826 484.25 395.265ZM461.87 392.474C465.4 391.946 467.868 391.694 469.498 391.354C469.944 391.26 470.407 391.331 470.806 391.559C471.785 392.128 474.541 393.717 482.497 398.308C459.367 403.121 464.075 402.887 461.87 392.474ZM463.87 429.113C464.139 416.337 461.143 418.782 500.18 410.415C501.722 410.087 503.335 410.339 504.701 411.125L514.041 416.519C505.703 419.315 473.837 426.949 463.87 429.113ZM515.794 413.476L506.454 408.082C505.088 407.29 504.062 406.024 503.581 404.523C491.309 366.529 490.688 370.352 501.622 363.727C504.73 373.442 514.052 404.857 515.794 413.476ZM438.957 368.816L440.2 364.665C467.692 378.109 481.189 366.377 515.929 345.504C517.048 344.83 518.397 344.631 519.652 344.982C521.381 345.463 523.117 345.891 524.864 346.29C472.401 377.728 465.429 386.288 438.957 368.816ZM525.749 342.971C524.037 342.438 522.319 341.945 520.584 341.494C519.318 341.165 518.25 340.321 517.617 339.178C497.964 303.735 492.148 286.826 461.618 284.721L462.621 280.505C494.276 278.617 496.035 289.517 525.749 342.971ZM514.34 316.253C508.183 305.048 506.811 308.672 536.432 281.901C537.605 280.845 539.123 280.253 540.7 280.253H551.483C545.667 286.849 521.891 309.393 514.34 316.253Z" fill="#EFD8C1"/>
</svg>
